<?xml version="1.0" encoding="UTF-8"?>
<svg version="1.1" xmlns="http://www.w3.org/2000/svg" width="276" height="265">
<path d="M0 0 C2.89483424 2.46800466 3.81945876 3.61809267 4.67578125 7.28125 C4.87109375 10.83203125 4.87109375 10.83203125 4.80078125 14.59375 C4.78273437 15.84800781 4.7646875 17.10226563 4.74609375 18.39453125 C4.72289062 19.34714844 4.6996875 20.29976562 4.67578125 21.28125 C7.02582494 22.12811259 9.37971255 22.95875196 11.73828125 23.78125 C12.39505859 24.01972656 13.05183594 24.25820313 13.72851562 24.50390625 C18.70237051 26.21902862 23.37213483 27.13773546 28.6081543 25.78027344 C32.36711672 24.87304482 36.20126187 25.05472268 40.05078125 25.03125 C40.88867188 25.010625 41.7265625 24.99 42.58984375 24.96875 C48.98496041 24.92852914 53.26714402 25.99938315 58.05078125 30.53125 C60.15174376 34.08672501 60.184951 36.20789198 59.67578125 40.28125 C58.72851171 41.97844127 57.73349864 43.65060236 56.67578125 45.28125 C56.24981144 49.13319263 56.24981144 49.13319263 58.07421875 50.96484375 C58.72648438 51.54363281 59.37875 52.12242188 60.05078125 52.71875 C74.54608009 66.65261121 84.54486861 84.90475472 89.67578125 104.28125 C89.99289063 105.44785156 90.31 106.61445312 90.63671875 107.81640625 C96.08145637 131.56844972 93.80833391 158.10221807 83.67578125 180.28125 C83.14984375 181.44140625 82.62390625 182.6015625 82.08203125 183.796875 C76.34615395 195.84221734 68.79170184 205.61481201 59.67578125 215.28125 C59.06347656 215.95800781 58.45117188 216.63476562 57.8203125 217.33203125 C39.28641425 237.05146671 13.01540697 246.53196382 -13.27734375 249.6796875 C-17.86743862 250.585937 -21.50821128 252.63629244 -25.32421875 255.28125 C-25.32421875 253.30125 -25.32421875 251.32125 -25.32421875 249.28125 C-26.45859375 249.343125 -27.59296875 249.405 -28.76171875 249.46875 C-57.63908132 249.37808324 -84.7818524 234.76194166 -105.01171875 215.03125 C-126.72272297 193.0647461 -137.51578779 164.38545414 -137.69921875 133.71875 C-137.52148645 107.05340832 -129.38513035 80.43012826 -111.32421875 60.28125 C-110.60363281 59.44207031 -109.88304688 58.60289063 -109.140625 57.73828125 C-97.05062677 43.88821395 -80.97234464 31.06634138 -62.9609375 26.00390625 C-52.98480826 23.17477671 -47.2305013 20.30869181 -40.6953125 12.19140625 C-31.54712653 0.96340206 -13.9846356 -7.2305989 0 0 Z M-31.44921875 97.96875 C-33.49394839 100.49058322 -33.97020772 102.09515075 -34.32421875 105.28125 C-36.57201625 103.22891315 -37.32644295 102.27457739 -38.32421875 99.28125 C-40.32438341 98.07242904 -40.32438341 98.07242904 -42.32421875 97.28125 C-43.19272049 99.53000747 -43.19272049 99.53000747 -43.32421875 102.28125 C-41.54758353 104.97683448 -40.2313743 106.82767223 -37.32421875 108.28125 C-34.45115647 108.78220023 -34.45115647 108.78220023 -31.32421875 108.28125 C-28.28843692 105.92008635 -26.64561597 104.26839859 -25.44921875 100.59375 C-25.13148816 98.25434566 -25.13148816 98.25434566 -26.32421875 96.28125 C-29.38491944 95.97030893 -29.38491944 95.97030893 -31.44921875 97.96875 Z " fill="#F2EB19" transform="translate(160.32421875,9.71875)"/>
<path d="M0 0 C0.495 1.98 0.495 1.98 1 4 C1.66 4 2.32 4 3 4 C4.80230168 7.82989106 5.19622241 10.78121808 5 15 C5.99 15 6.98 15 8 15 C8.50660156 15.95712891 8.50660156 15.95712891 9.0234375 16.93359375 C9.46945313 17.75988281 9.91546875 18.58617188 10.375 19.4375 C10.81585938 20.26121094 11.25671875 21.08492187 11.7109375 21.93359375 C12.83418559 24.13466578 12.83418559 24.13466578 15 25 C17.0374763 25.22858114 19.08040303 25.41024278 21.125 25.5625 C22.76855469 25.68818359 22.76855469 25.68818359 24.4453125 25.81640625 C25.70988281 25.90728516 25.70988281 25.90728516 27 26 C27.495 24.515 27.495 24.515 28 23 C28.99 22.67 29.98 22.34 31 22 C34.12567332 17.19127181 34.64043142 12.57951246 35 7 C38.83863977 7.54837711 40.59214487 8.99755207 43 12 C44.01968072 14.41962911 44.86284059 16.69293218 45.625 19.1875 C46.02976562 20.43917969 46.43453125 21.69085938 46.8515625 22.98046875 C47.24140367 24.31828434 47.62413197 25.65819155 48 27 C48.19053955 27.6506543 48.3810791 28.30130859 48.57739258 28.97167969 C50.45450237 36.17667946 50.438946 43.47005115 50.4375 50.875 C50.43889984 51.55986481 50.44029968 52.24472961 50.44174194 52.9503479 C50.42223739 64.57625012 49.03254797 75.05287722 45 86 C44.62746094 87.08410156 44.25492187 88.16820312 43.87109375 89.28515625 C34.06631549 115.21486601 13.25192656 135.37308389 -11.75 146.6875 C-25.76921562 152.73497272 -38.93844424 153.40911671 -54 153 C-54 152.34 -54 151.68 -54 151 C-53.236875 150.566875 -52.47375 150.13375 -51.6875 149.6875 C-48.54253683 147.71275568 -47.6162135 146.32016431 -46 143 C-44.62419826 134.36124487 -45.90712574 127.60298738 -50.296875 120.109375 C-52.06793162 117.91586451 -53.40038541 117.01724049 -56 116 C-56 113.69 -56 111.38 -56 109 C-56.66 109 -57.32 109 -58 109 C-58 109.66 -58 110.32 -58 111 C-58.99 111 -59.98 111 -61 111 C-61.33 110.01 -61.66 109.02 -62 108 C-58.875 106.75 -58.875 106.75 -55 106 C-51.75 107.75 -51.75 107.75 -49 110 C-48.01 110.66 -47.02 111.32 -46 112 C-46.32355469 111.23042969 -46.64710938 110.46085937 -46.98046875 109.66796875 C-48.32612528 104.82669871 -48.34159697 100.31422736 -48.3125 95.3125 C-48.30758545 94.32660889 -48.3026709 93.34071777 -48.29760742 92.32495117 C-48.18709014 85.47684674 -47.62854305 79.38662066 -45 73 C-44.64808594 72.10667969 -44.29617187 71.21335937 -43.93359375 70.29296875 C-39.60927377 60.08871534 -33.38223711 51.24487365 -26.55200195 42.59033203 C-23.85208621 39.16586415 -21.40116232 35.63844247 -19 32 C-17.21312906 30.05774898 -15.34433899 28.45107451 -13.3125 26.75 C-10.815279 23.78033178 -10.72377625 22.94862601 -11.01171875 19.23828125 C-10.98490194 14.11627096 -9.64180798 8.83083418 -8 4 C-5 2 -5 2 -2 2 C-1.34 1.34 -0.68 0.68 0 0 Z " fill="#F2EB19" transform="translate(190,92)"/>
<path d="M0 0 C-0.64800425 1.67401097 -1.32165413 3.33805262 -2 5 C-2.15210937 5.67804687 -2.30421875 6.35609375 -2.4609375 7.0546875 C-3.75035089 11.43869301 -5.45124084 13.89366056 -9.43359375 16.11328125 C-12.91722231 17.87182542 -16.47468206 19.46988466 -20.03027344 21.07666016 C-43.32186753 31.99495575 -59.32599762 53.22228655 -68.44140625 76.71484375 C-76.90084843 102.96720858 -75.39306931 132.58484118 -62.91894531 157.25878906 C-49.28991105 183.0829847 -27.2801536 200.58300379 0.30078125 209.453125 C25.31139674 216.53358269 53.16842766 212.93915508 76 201 C101.13764174 186.95342901 118.23666391 165.2433586 126.1862793 137.7890625 C131.67894917 118.1133595 131.05224752 95.18972107 124 76 C123.62746094 74.90429688 123.25492188 73.80859375 122.87109375 72.6796875 C116.83904968 56.58022492 105.185581 41.84147771 92 31 C92 30.34 92 29.68 92 29 C93.39449109 28.516941 94.79066707 28.03874483 96.1875 27.5625 C96.96480469 27.29566406 97.74210938 27.02882813 98.54296875 26.75390625 C99.35378906 26.50511719 100.16460937 26.25632812 101 26 C101.83789062 25.72800781 102.67578125 25.45601562 103.5390625 25.17578125 C106 25 106 25 108.10546875 26.4140625 C123.01427496 42.245928 134.38796666 59.80658953 140 81 C140.31710938 82.16660156 140.63421875 83.33320312 140.9609375 84.53515625 C146.40567512 108.28719972 144.13255266 134.82096807 134 157 C133.4740625 158.16015625 132.948125 159.3203125 132.40625 160.515625 C126.6703727 172.56096734 119.11592059 182.33356201 110 192 C109.38769531 192.67675781 108.77539062 193.35351562 108.14453125 194.05078125 C89.610633 213.77021671 63.33962572 223.25071382 37.046875 226.3984375 C32.45678013 227.304687 28.81600747 229.35504244 25 232 C25 230.02 25 228.04 25 226 C23.865625 226.061875 22.73125 226.12375 21.5625 226.1875 C-7.31486257 226.09683324 -34.45763365 211.48069166 -54.6875 191.75 C-76.39850422 169.7834961 -87.19156904 141.10420414 -87.375 110.4375 C-87.1972677 83.77215832 -79.0609116 57.14887826 -61 37 C-60.27941406 36.16082031 -59.55882813 35.32164063 -58.81640625 34.45703125 C-46.30029273 20.11881455 -20.726275 -2.24067838 0 0 Z " fill="#090B09" transform="translate(110,33)"/>
<path d="M0 0 C6.54782318 4.64091327 11.33422716 9.9487646 13 18 C14.36778248 35.23405922 4.60077983 48.85904845 -5.51171875 61.79296875 C-14.75514603 73.6580386 -23.11236834 87.55082045 -23.1328125 103.08984375 C-23.13410156 104.03923828 -23.13539063 104.98863281 -23.13671875 105.96679688 C-23.13091797 107.43729492 -23.13091797 107.43729492 -23.125 108.9375 C-23.12886719 109.91396484 -23.13273437 110.89042969 -23.13671875 111.89648438 C-23.13019336 116.70895668 -23.00848212 121.26973862 -22 126 C-38.35883194 118.69695003 -49.4890449 94.86140667 -55.78466797 79.02636719 C-63.23436547 59.24866927 -65.14384409 38.47014293 -56.40625 18.78515625 C-51.62437489 9.31438693 -43.40108618 0.21246987 -33.19921875 -3.375 C-22.65499948 -5.43492074 -9.29110847 -6.05167985 0 0 Z M-37.125 29.6875 C-39.16972964 32.20933322 -39.64598897 33.81390075 -40 37 C-42.2477975 34.94766315 -43.0022242 33.99332739 -44 31 C-46.00016466 29.79117904 -46.00016466 29.79117904 -48 29 C-48.86850174 31.24875747 -48.86850174 31.24875747 -49 34 C-47.22336478 36.69558448 -45.90715555 38.54642223 -43 40 C-40.12693772 40.50095023 -40.12693772 40.50095023 -37 40 C-33.96421817 37.63883635 -32.32139722 35.98714859 -31.125 32.3125 C-30.80726941 29.97309566 -30.80726941 29.97309566 -32 28 C-35.06070069 27.68905893 -35.06070069 27.68905893 -37.125 29.6875 Z " fill="#040707" transform="translate(166,78)"/>
<path d="M0 0 C1.2684375 -0.02835937 2.536875 -0.05671875 3.84375 -0.0859375 C8.15157843 0.45714343 10.22498407 1.55270686 13.5 4.375 C15.87958189 8.36589877 15.71041343 12.11788171 15.625 16.6875 C15.60695313 17.94175781 15.58890625 19.19601563 15.5703125 20.48828125 C15.54710937 21.44089844 15.52390625 22.39351562 15.5 23.375 C17.85004369 24.22186259 20.2039313 25.05250196 22.5625 25.875 C23.21927734 26.11347656 23.87605469 26.35195313 24.55273438 26.59765625 C29.52658926 28.31277862 34.19635358 29.23148546 39.43237305 27.87402344 C43.19133547 26.96679482 47.02548062 27.14847268 50.875 27.125 C51.71289062 27.104375 52.55078125 27.08375 53.4140625 27.0625 C59.80917916 27.02227914 64.09136277 28.09313315 68.875 32.625 C70.97596251 36.18047501 71.00916975 38.30164198 70.5 42.375 C67.71406019 48.36477059 63.57552878 51.89519233 57.5 54.375 C54.625 54.5625 54.625 54.5625 52.5 54.375 C52.005 55.365 52.005 55.365 51.5 56.375 C43.82295994 56.05512333 36.5278559 55.4825109 29 53.875 C18.63391088 51.6766924 8.05961064 51.62622102 -2.5 51.375 C0.89708263 46.97580951 4.07048946 44.02238035 8.8125 41 C9.88113281 40.31164063 10.94976562 39.62328125 12.05078125 38.9140625 C12.85902344 38.40617187 13.66726562 37.89828125 14.5 37.375 C9.73805354 36.27892335 5.43339152 35.48044572 0.8828125 37.5859375 C-0.90877859 38.78940751 -2.67697044 40.02813696 -4.42578125 41.29296875 C-7.32934628 43.25942384 -10.14520811 44.7085029 -13.31347656 46.17089844 C-30.40629141 54.08168958 -40.67554174 65.87709977 -49.5 82.375 C-49.83 82.375 -50.16 82.375 -50.5 82.375 C-51.08808007 55.44093282 -51.08808007 55.44093282 -48.15625 45.6953125 C-47.31856489 43.13538567 -47.31856489 43.13538567 -47.5 39.375 C-46.84 39.375 -46.18 39.375 -45.5 39.375 C-45.31824219 38.78332031 -45.13648437 38.19164062 -44.94921875 37.58203125 C-43.54332943 33.162492 -42.12472819 29.24959875 -39.5 25.375 C-40.16 25.045 -40.82 24.715 -41.5 24.375 C-40.819375 24.045 -40.13875 23.715 -39.4375 23.375 C-36.77799098 21.56427046 -35.23314759 20.04599578 -33.1875 17.625 C-24.28512258 7.14254693 -14.1486019 0.1437866 0 0 Z " fill="#EB2024" transform="translate(149.5,7.625)"/>
<path d="M0 0 C1.45986328 0.14501953 1.45986328 0.14501953 2.94921875 0.29296875 C3.72910156 0.46441406 4.50898438 0.63585938 5.3125 0.8125 C5.8075 1.8025 5.8075 1.8025 6.3125 2.8125 C5.33667969 3.42738281 4.36085937 4.04226562 3.35546875 4.67578125 C2.07018345 5.49198432 0.78503432 6.30840184 -0.5 7.125 C-1.14259766 7.52912109 -1.78519531 7.93324219 -2.44726562 8.34960938 C-3.38022461 8.94418945 -3.38022461 8.94418945 -4.33203125 9.55078125 C-4.90284424 9.91212158 -5.47365723 10.27346191 -6.06176758 10.64575195 C-7.79466631 11.88941062 -9.22076969 13.26806212 -10.6875 14.8125 C-10.10484375 14.82708252 -9.5221875 14.84166504 -8.921875 14.85668945 C2.14455171 15.1644527 12.74139204 15.78452303 23.56640625 18.14453125 C27.49806812 18.84558879 31.19869673 18.94819736 35.1875 19 C43.09192422 19.4557058 46.98196821 22.13413579 52.3125 27.8125 C53.21613281 28.76769531 54.11976563 29.72289063 55.05078125 30.70703125 C62.02612296 38.39534892 71.58304915 49.30477591 73.3125 59.8125 C72.3225 59.4825 71.3325 59.1525 70.3125 58.8125 C70.3125 58.1525 70.3125 57.4925 70.3125 56.8125 C69.3225 56.8125 68.3325 56.8125 67.3125 56.8125 C67.23 57.988125 67.1475 59.16375 67.0625 60.375 C66.48536737 65.00855052 64.96977664 67.98289543 62.3125 71.8125 C60.8275 72.3075 60.8275 72.3075 59.3125 72.8125 C58.9825 73.4725 58.6525 74.1325 58.3125 74.8125 C56.37530622 74.86656122 54.43768079 74.90532025 52.5 74.9375 C51.42105469 74.96070312 50.34210938 74.98390625 49.23046875 75.0078125 C46.3125 74.8125 46.3125 74.8125 43.3125 72.8125 C39.3125 67.1402592 39.3125 67.1402592 39.3125 63.8125 C38.3225 63.8125 37.3325 63.8125 36.3125 63.8125 C35.3225 58.3675 35.3225 58.3675 34.3125 52.8125 C30.52361092 51.86527773 29.74282472 51.78340259 26.3125 52.8125 C25.6525 52.8125 24.9925 52.8125 24.3125 52.8125 C21.95149057 61.26246677 21.95149057 61.26246677 21.3125 69.9375 C21.3125 72.8125 21.3125 72.8125 19.9375 74.75 C18.3125 75.8125 18.3125 75.8125 16.3125 75.8125 C15.6525 77.4625 14.9925 79.1125 14.3125 80.8125 C13.9825 80.1525 13.6525 79.4925 13.3125 78.8125 C14.02730106 76.84534423 14.83439271 74.91124313 15.6875 73 C19.19375628 65.11582038 20.96760943 57.10959622 18.1875 48.6875 C14.53104222 40.21193198 8.65874006 36.28890292 0.3125 32.8125 C-7.81628597 30.10290468 -20.25905695 30.40608753 -28.3125 33.25 C-36.97652678 37.61262833 -43.09662375 44.50596828 -47.62890625 52.94140625 C-48.15291016 53.86759766 -48.15291016 53.86759766 -48.6875 54.8125 C-49.0175 54.8125 -49.3475 54.8125 -49.6875 54.8125 C-49.6875 53.1625 -49.6875 51.5125 -49.6875 49.8125 C-49.0275 49.8125 -48.3675 49.8125 -47.6875 49.8125 C-48.0175 47.5025 -48.3475 45.1925 -48.6875 42.8125 C-49.3475 42.8125 -50.0075 42.8125 -50.6875 42.8125 C-50.6875 42.1525 -50.6875 41.4925 -50.6875 40.8125 C-53.1625 41.3075 -53.1625 41.3075 -55.6875 41.8125 C-49.06570916 23.34469138 -31.90700016 14.39843911 -15.57617188 5.97094727 C-11.36910384 3.79171641 -11.36910384 3.79171641 -7.53515625 1.03125 C-4.90274784 -0.70513779 -3.08624078 -0.35024094 0 0 Z " fill="#F3EA19" transform="translate(158.6875,43.1875)"/>
<path d="M0 0 C0.66 0 1.32 0 2 0 C2.36351563 1.01578125 2.72703125 2.0315625 3.1015625 3.078125 C7.44166445 15.04186266 11.86577235 26.07647948 20.265625 35.84375 C21.86711659 37.8347936 22.96442301 39.67523534 24 42 C24.66 42 25.32 42 26 42 C27.33203125 43.35546875 27.33203125 43.35546875 28.8125 45.1875 C30.66047283 47.43018548 32.44856691 49.4266856 34.5625 51.4375 C40.23312456 57.39892582 43.39198206 63.17939293 43.2734375 71.39453125 C42.8299262 75.62056037 41.63259995 77.62487186 39 81 C34.11443621 84.88850996 30.05593622 85.7057394 23.83984375 85.44140625 C16.02945845 84.22741239 10.53991701 80.22633248 5.5703125 74.2578125 C1.68544475 68.67210713 -0.79823083 63.38646375 -2.625 56.875 C-2.83664795 56.13217773 -3.0482959 55.38935547 -3.26635742 54.62402344 C-8.2584734 36.56470919 -9.19652648 18.24464013 -1 1 C-0.67 0.67 -0.34 0.34 0 0 Z " fill="#EB2022" transform="translate(101,159)"/>
<path d="M0 0 C0.81702393 -0.01804688 1.63404785 -0.03609375 2.47583008 -0.0546875 C8.72121744 -0.04445231 12.96310205 1.1459651 17.625 5.5625 C19.72596251 9.11797501 19.75916975 11.23914198 19.25 15.3125 C16.46406019 21.30227059 12.32552878 24.83269233 6.25 27.3125 C3.375 27.5 3.375 27.5 1.25 27.3125 C0.92 27.9725 0.59 28.6325 0.25 29.3125 C-7.42704006 28.99262333 -14.7221441 28.4200109 -22.25 26.8125 C-32.61608912 24.6141924 -43.19038936 24.56372102 -53.75 24.3125 C-45.32276168 13.43566224 -26.62313149 2.47046139 -12.65234375 0.48828125 C-8.43451424 0.23282724 -4.22504696 0.07038412 0 0 Z " fill="#EA2023" transform="translate(200.75,34.6875)"/>
<path d="M0 0 C13.23867784 -0.81385315 23.55086623 1.1673289 34.01953125 9.99609375 C39.11046083 15.14727102 42.31272394 20.34397585 42.625 27.6875 C42.31158725 32.84058863 41.14866778 35.9152418 38 40 C34.66226453 42.8741611 31.48886357 43.67846312 27.0546875 43.4609375 C22.97509359 42.54574343 20.48700967 40.27978396 18 37 C16.27221999 33.45350419 15.18498381 29.7561751 14 26 C12.98938955 23.19650454 11.93244801 20.41110964 10.875 17.625 C10.49396118 16.60817139 10.49396118 16.60817139 10.10522461 15.57080078 C8.77814684 12.02987808 7.42071285 8.50442503 6 5 C5.34 5 4.68 5 4 5 C2.61767557 3.37373596 1.28062485 1.7074998 0 0 Z " fill="#EC1F23" transform="translate(181,74)"/>
<path d="M0 0 C-0.89944134 6.55307263 -0.89944134 6.55307263 -1.5625 9.5 C-2.53478815 15.05593228 -1.92283721 19.78458925 -0.4453125 25.1328125 C0.10846214 27.45477985 0.14850195 29.62396879 0 32 C-6.87831576 35.10198554 -12.42016148 36.37277894 -20 36 C-20.66 35.34 -21.32 34.68 -22 34 C-21.34773438 33.6596875 -20.69546875 33.319375 -20.0234375 32.96875 C-13.1941896 29.18143848 -7.72824845 25.14436572 -5.1640625 17.51171875 C-4.77425071 14.96591 -4.77425071 14.96591 -6.15234375 12.8671875 C-11.57971841 6.81037989 -16.15958122 4.92968178 -24 3 C-24 2.34 -24 1.68 -24 1 C-15.31324442 -2.30924022 -8.93722719 -2.50869535 0 0 Z " fill="#E89C18" transform="translate(99,105)"/>
<path d="M0 0 C4.92127034 -0.16682272 8.50343896 -0.24828052 13 2 C13 2.66 13 3.32 13 4 C13.66 4 14.32 4 15 4 C15 5.65 15 7.3 15 9 C15.99 7.02 16.98 5.04 18 3 C18.66 3.33 19.32 3.66 20 4 C19.7834375 4.91265625 19.7834375 4.91265625 19.5625 5.84375 C16.70946268 19.31642622 17.50106146 31.7450121 21 45 C21.28617188 46.09441406 21.57234375 47.18882812 21.8671875 48.31640625 C22.55598364 50.88463186 23.26471825 53.44476556 24 56 C23.34 56 22.68 56 22 56 C22 55.01 22 54.02 22 53 C21.34 53 20.68 53 20 53 C17.56109904 48.73192332 16.77228786 45.89581103 17 41 C16.505 40.505 16.505 40.505 16 40 C15.34 40.66 14.68 41.32 14 42 C13.67 41.34 13.34 40.68 13 40 C11.41705218 39.94562393 9.83355744 39.90703729 8.25 39.875 C6.92742187 39.84019531 6.92742187 39.84019531 5.578125 39.8046875 C3.00086916 39.82913137 3.00086916 39.82913137 0.96875 41.0625 C-1.64099406 42.30523527 -2.99397422 41.85453624 -5.75 41.125 C-6.54921875 40.92132813 -7.3484375 40.71765625 -8.171875 40.5078125 C-8.77515625 40.34023437 -9.3784375 40.17265625 -10 40 C-10.33 38.35 -10.66 36.7 -11 35 C-9.68 35.33 -8.36 35.66 -7 36 C-7.33 36.66 -7.66 37.32 -8 38 C-0.91923749 38.40850553 5.19925959 36.90420731 12 35 C11.7834375 34.14277344 11.566875 33.28554687 11.34375 32.40234375 C8.66146011 21.38756999 8.99718653 13.88519882 12 3 C10.14375 2.814375 10.14375 2.814375 8.25 2.625 C5.1237803 2.24253695 2.71120763 1.69450477 0 0 Z " fill="#EFE525" transform="translate(87,102)"/>
<path d="M0 0 C0.33 0.66 0.66 1.32 1 2 C0.67 2.61875 0.34 3.2375 0 3.875 C-1.20069374 5.94313782 -1.20069374 5.94313782 -0.75 8.1875 C-0.14991567 10.19815586 -0.14991567 10.19815586 2 11 C2.33 11.33 2.66 11.66 3 12 C4.65 11.34 6.3 10.68 8 10 C8 10.66 8 11.32 8 12 C9.0725 12.061875 10.145 12.12375 11.25 12.1875 C15 13 15 13 17.4375 15.5625 C17.953125 16.366875 18.46875 17.17125 19 18 C18.236875 18.37125 17.47375 18.7425 16.6875 19.125 C13.47956885 21.3630915 12.5022184 23.44211433 11 27 C10.01 26.67 9.02 26.34 8 26 C7.505 23.525 7.505 23.525 7 21 C5.68 20.67 4.36 20.34 3 20 C3 21.98 3 23.96 3 26 C1.02 25.67 -0.96 25.34 -3 25 C-3 24.34 -3 23.68 -3 23 C-3.66 22.67 -4.32 22.34 -5 22 C-4.67 20.35 -4.34 18.7 -4 17 C-6.96091412 20.05344268 -7.97079592 21.41591838 -8.1875 25.75 C-8.125625 26.8225 -8.06375 27.895 -8 29 C-8.33 29.33 -8.66 29.66 -9 30 C-9.23653523 32.52596259 -9.42173692 35.03107207 -9.5625 37.5625 C-9.60568359 38.27341797 -9.64886719 38.98433594 -9.69335938 39.71679688 C-9.79971777 41.47761912 -9.90038846 43.2387832 -10 45 C-10.33 45 -10.66 45 -11 45 C-11.36885503 28.66791894 -10.20259603 13.60346138 0 0 Z " fill="#0E100A" transform="translate(115,88)"/>
<path d="M0 0 C0.66 0.33 1.32 0.66 2 1 C1.30160122 4.56924442 0.56095187 8.12844378 -0.1875 11.6875 C-0.38408203 12.69490234 -0.58066406 13.70230469 -0.78320312 14.74023438 C-2.04813923 20.63678268 -3.01877084 24.39343563 -8 28 C-11.2072487 28.51315979 -13.00288188 28.53179633 -15.875 27 C-17.72459695 23.71182764 -17.67154124 20.60307704 -17 17 C-14.12628623 10.00197479 -8.30707084 4.55410094 -1.87890625 0.7421875 C-1.25886719 0.49726563 -0.63882813 0.25234375 0 0 Z " fill="#E4291B" transform="translate(88,159)"/>
<path d="M0 0 C2 3 2 3 1.625 5.1875 C1.41875 5.785625 1.2125 6.38375 1 7 C3.31 7 5.62 7 8 7 C7.79503906 7.70125 7.59007813 8.4025 7.37890625 9.125 C2.9901382 24.5801832 3.56603856 38.42967601 6.63623047 54.03808594 C7.18794848 57.01366039 7.59673726 60.00097805 8 63 C7.34 63 6.68 63 6 63 C4.7082362 59.55529653 3.84449818 56.33079016 3.4375 52.6875 C3.40985408 49.20356334 3.40985408 49.20356334 2 48 C1.84235595 46.22130274 1.74899323 44.43681524 1.68359375 42.65234375 C1.64169922 41.57275391 1.59980469 40.49316406 1.55664062 39.38085938 C1.51732422 38.24455078 1.47800781 37.10824219 1.4375 35.9375 C1.39431641 34.79732422 1.35113281 33.65714844 1.30664062 32.48242188 C1.20017161 29.65507805 1.09815793 26.82764262 1 24 C0.38125 24.474375 -0.2375 24.94875 -0.875 25.4375 C-3 27 -3 27 -5 28 C-5 28.66 -5 29.32 -5 30 C-4.34 30.33 -3.68 30.66 -3 31 C-3.33 32.32 -3.66 33.64 -4 35 C-4.99 34.67 -5.98 34.34 -7 34 C-7 33.34 -7 32.68 -7 32 C-7.99 32.495 -7.99 32.495 -9 33 C-10.49756871 33.09499503 -11.99942932 33.12987198 -13.5 33.125 C-14.2940625 33.12757813 -15.088125 33.13015625 -15.90625 33.1328125 C-18 33 -18 33 -20 32 C-19.505 30.515 -19.505 30.515 -19 29 C-18.34 29.66 -17.68 30.32 -17 31 C-13.70687095 31.42953857 -11.77967678 31.5142868 -8.96875 29.66015625 C-5.92571538 25.54843685 -5.35274413 21.01876218 -4.375 16.0625 C-3.96981851 14.09429244 -3.56107842 12.12681344 -3.1484375 10.16015625 C-2.97489746 9.29011963 -2.80135742 8.42008301 -2.62255859 7.52368164 C-1.97309865 4.89094929 -1.06221386 2.49181625 0 0 Z " fill="#F5EA19" transform="translate(91,155)"/>
<path d="M0 0 C5.9260372 0.4306117 10.88097127 2.49468693 16.1328125 5.1640625 C12.33976388 9.37994277 7.54659362 11.65574537 2.1328125 13.1640625 C-2.02768721 13.01068002 -5.85844562 12.26244378 -9.8671875 11.1640625 C-9.8671875 9.1640625 -9.8671875 9.1640625 -7.5546875 6.7890625 C-6.6678125 5.9228125 -5.7809375 5.0565625 -4.8671875 4.1640625 C-4.4546875 3.3803125 -4.0421875 2.5965625 -3.6171875 1.7890625 C-1.8671875 0.1640625 -1.8671875 0.1640625 0 0 Z " fill="#0F0A08" transform="translate(164.8671875,31.8359375)"/>
<path d="M0 0 C0.33 0.99 0.66 1.98 1 3 C0.34 3 -0.32 3 -1 3 C-1 3.66 -1 4.32 -1 5 C-1.99 5 -2.98 5 -4 5 C-4.33 5.99 -4.66 6.98 -5 8 C-5.66 7.67 -6.32 7.34 -7 7 C-7.33 8.65 -7.66 10.3 -8 12 C-8.99 12 -9.98 12 -11 12 C-11.33 13.32 -11.66 14.64 -12 16 C-15.96 16.495 -15.96 16.495 -20 17 C-20.33 15.35 -20.66 13.7 -21 12 C-21.99 11.67 -22.98 11.34 -24 11 C-22.47005208 9.76302083 -20.94010417 8.52604167 -19.41015625 7.2890625 C-17.86733563 6.0333609 -17.86733563 6.0333609 -17 4 C-14.8125 2.3125 -14.8125 2.3125 -12 1 C-9.99453311 1.29868656 -7.99422795 1.63371323 -6 2 C-2.71138905 1.1552144 -2.71138905 1.1552144 0 0 Z " fill="#040707" transform="translate(222,217)"/>
<path d="M0 0 C4.86971174 0.41740386 6.72184884 2.54465148 10 6 C10.66 6 11.32 6 12 6 C12 5.01 12 4.02 12 3 C16.71642877 9.38824646 20.669958 15.78746663 24 23 C23.01 23 22.02 23 21 23 C21 22.34 21 21.68 21 21 C20.01 21 19.02 21 18 21 C17.9175 22.175625 17.835 23.35125 17.75 24.5625 C17.17286737 29.19605052 15.65727664 32.17039543 13 36 C11.515 36.495 11.515 36.495 10 37 C9.67 37.66 9.34 38.32 9 39 C7.06280622 39.05406122 5.12518079 39.09282025 3.1875 39.125 C2.10855469 39.14820313 1.02960938 39.17140625 -0.08203125 39.1953125 C-3 39 -3 39 -6 37 C-5.67 36.34 -5.34 35.68 -5 35 C-4.01 35.66 -3.02 36.32 -2 37 C2.72374773 37.30475792 6.85092271 37.56266539 11 35 C12.31068333 32.55711372 12.31068333 32.55711372 13 30 C13.33 29.34 13.66 28.68 14 28 C15.00707736 20.65725875 13.97310891 15.40307989 9.8671875 9.234375 C7.4134926 6.29815432 4.72089967 4.16194304 1.5390625 2.05859375 C1.03117188 1.70925781 0.52328125 1.35992187 0 1 C0 0.67 0 0.34 0 0 Z " fill="#FDC730" transform="translate(208,79)"/>
<path d="M0 0 C1.32 0 2.64 0 4 0 C9.21367386 8.47222003 11.85151061 16.00426297 10 26 C8.4878734 29.2126802 6.81097197 31.79772999 4 34 C3.01 34 2.02 34 1 34 C1 34.66 1 35.32 1 36 C6.28 36 11.56 36 17 36 C17 36.33 17 36.66 17 37 C-23.86234769 38.1353078 -23.86234769 38.1353078 -33 30 C-30.03 30.33 -27.06 30.66 -24 31 C-23.67 30.34 -23.34 29.68 -23 29 C-22.40574219 29.3609375 -21.81148437 29.721875 -21.19921875 30.09375 C-14.72958623 33.71593928 -9.40083572 35.21269437 -2 34 C1.97198729 32.70494403 4.43198889 30.76956344 6.9375 27.375 C8.6592092 21.90604137 9.1545722 16.87537138 6.98046875 11.4609375 C5.35306989 8.4421372 3.79559772 5.77696545 1.33203125 3.37109375 C0 2 0 2 0 0 Z " fill="#E2CD3D" transform="translate(135,209)"/>
<path d="M0 0 C1.83590188 0.0377638 3.67051617 0.15454199 5.5 0.3125 C6.5003125 0.39113281 7.500625 0.46976563 8.53125 0.55078125 C9.75328125 0.77314453 9.75328125 0.77314453 11 1 C11.33 1.66 11.66 2.32 12 3 C10.55367187 3.92232422 10.55367187 3.92232422 9.078125 4.86328125 C7.80203118 5.67960597 6.52599241 6.49601676 5.25 7.3125 C4.61578125 7.71662109 3.9815625 8.12074219 3.328125 8.53710938 C0.12825108 10.5870286 -3.00078145 12.65970068 -6 15 C-6.1875 12.625 -6.1875 12.625 -6 10 C-3 8 -3 8 -1 8 C-1.33 7.67 -1.66 7.34 -2 7 C-3.79379098 7.44994757 -5.58498928 7.91024143 -7.375 8.375 C-8.37273437 8.63023438 -9.37046875 8.88546875 -10.3984375 9.1484375 C-13.12541015 9.82404319 -13.12541015 9.82404319 -15 12 C-17.125 11.625 -17.125 11.625 -19 11 C-18.18994507 10.55346069 -18.18994507 10.55346069 -17.36352539 10.09790039 C-14.92887423 8.75452698 -12.4956726 7.40854945 -10.0625 6.0625 C-9.21236328 5.59392578 -8.36222656 5.12535156 -7.48632812 4.64257812 C-6.67744141 4.19462891 -5.86855469 3.74667969 -5.03515625 3.28515625 C-3.91185913 2.66459351 -3.91185913 2.66459351 -2.76586914 2.03149414 C-1.03748855 1.1221285 -1.03748855 1.1221285 0 0 Z " fill="#F6D82A" transform="translate(153,43)"/>
<path d="M0 0 C0 0.66 0 1.32 0 2 C-0.66 2 -1.32 2 -2 2 C-2.33 3.32 -2.66 4.64 -3 6 C-3.99 6 -4.98 6 -6 6 C-6 7.65 -6 9.3 -6 11 C-6.66 11 -7.32 11 -8 11 C-8 13.64 -8 16.28 -8 19 C-7.34 19 -6.68 19 -6 19 C-5.67 18.34 -5.34 17.68 -5 17 C-3.35 17.33 -1.7 17.66 0 18 C-1.44739891 21.0478881 -3.12466976 23.82138128 -5 26.625 C-5.7734375 27.78902344 -5.7734375 27.78902344 -6.5625 28.9765625 C-8 31 -8 31 -10 33 C-10 31.35 -10 29.7 -10 28 C-9.34 28 -8.68 28 -8 28 C-8.33 25.69 -8.66 23.38 -9 21 C-9.66 21 -10.32 21 -11 21 C-11 20.34 -11 19.68 -11 19 C-12.65 19.33 -14.3 19.66 -16 20 C-14.58317163 15.97591531 -12.65214232 12.86583081 -10.125 9.4375 C-9.44695312 8.50808594 -8.76890625 7.57867187 -8.0703125 6.62109375 C-2.84053651 0 -2.84053651 0 0 0 Z " fill="#F7E322" transform="translate(119,65)"/>
<path d="M0 0 C12.38062349 -0.30238246 24.21384585 -0.46977301 36.32421875 2.296875 C40.23870653 3.04566119 43.89472155 3.13987952 47.875 3.1875 C58.13633514 3.73779242 63.05559468 9.75416376 69.625 17 C70.75848253 18.32612976 71.88685008 19.65675764 73 21 C72.67 21.66 72.34 22.32 72 23 C70.29115995 21.37660195 68.62553283 19.70680947 67 18 C67 17.34 67 16.68 67 16 C66.34 16 65.68 16 65 16 C64.67 16.66 64.34 17.32 64 18 C63.34 15.69 62.68 13.38 62 11 C60.68 11 59.36 11 58 11 C57.70222656 10.02933594 57.70222656 10.02933594 57.3984375 9.0390625 C56.1327233 6.68018021 56.1327233 6.68018021 53.1640625 6.4609375 C51.99617188 6.43257813 50.82828125 6.40421875 49.625 6.375 C31.5934466 5.5934466 31.5934466 5.5934466 29 3 C19.69662965 1.99254947 10.34883581 1.8581121 1 2 C0.67 1.34 0.34 0.68 0 0 Z " fill="#FDD434" transform="translate(146,59)"/>
<path d="M0 0 C0.33 0 0.66 0 1 0 C1.02578125 0.75925781 1.0515625 1.51851562 1.078125 2.30078125 C1.13484375 3.29464844 1.1915625 4.28851563 1.25 5.3125 C1.29640625 6.29863281 1.3428125 7.28476563 1.390625 8.30078125 C1.75970238 11.13940092 1.75970238 11.13940092 4.046875 12.85546875 C5.01367188 13.42201172 5.01367188 13.42201172 6 14 C6 13.34 6 12.68 6 12 C6.99 12 7.98 12 9 12 C8.34 9.69 7.68 7.38 7 5 C7.99 5.33 8.98 5.66 10 6 C10 6.66 10 7.32 10 8 C10.99 8.33 11.98 8.66 13 9 C12.09507813 10.28583984 12.09507813 10.28583984 11.171875 11.59765625 C7.19732514 17.27380768 3.27319457 22.88054928 0 29 C-0.33 29 -0.66 29 -1 29 C-1.02897435 24.72918086 -1.04678996 20.45838691 -1.0625 16.1875 C-1.07087891 14.97255859 -1.07925781 13.75761719 -1.08789062 12.50585938 C-1.09111328 11.34248047 -1.09433594 10.17910156 -1.09765625 8.98046875 C-1.10289307 7.90692139 -1.10812988 6.83337402 -1.11352539 5.72729492 C-1 3 -1 3 0 0 Z " fill="#EB221F" transform="translate(100,61)"/>
<path d="M0 0 C1.94140625 0.40234375 1.94140625 0.40234375 4.44140625 2.90234375 C5.18390625 4.13984375 5.18390625 4.13984375 5.94140625 5.40234375 C5.17828125 5.77359375 4.41515625 6.14484375 3.62890625 6.52734375 C0.4209751 8.76543525 -0.55637535 10.84445808 -2.05859375 14.40234375 C-3.04859375 14.07234375 -4.03859375 13.74234375 -5.05859375 13.40234375 C-5.38859375 11.75234375 -5.71859375 10.10234375 -6.05859375 8.40234375 C-7.70859375 8.07234375 -9.35859375 7.74234375 -11.05859375 7.40234375 C-8.99502399 1.37037062 -6.48783031 -0.1075331 0 0 Z " fill="#EDEEEE" transform="translate(128.05859375,100.59765625)"/>
<path d="M0 0 C-0.30924214 2.10464793 -0.6225056 4.2087053 -0.9375 6.3125 C-1.19853516 8.07013672 -1.19853516 8.07013672 -1.46484375 9.86328125 C-2 13 -2 13 -3 16 C-3.15029988 18.06362991 -3.24844448 20.13123915 -3.31640625 22.19921875 C-3.35830078 23.40771484 -3.40019531 24.61621094 -3.44335938 25.86132812 C-3.48267578 27.12396484 -3.52199219 28.38660156 -3.5625 29.6875 C-3.60568359 30.96173828 -3.64886719 32.23597656 -3.69335938 33.54882812 C-3.7995486 36.69910852 -3.90159533 39.84946839 -4 43 C-4.66 42.67 -5.32 42.34 -6 42 C-6.08832196 37.89597283 -6.14083048 33.79219544 -6.1875 29.6875 C-6.21263672 28.53958984 -6.23777344 27.39167969 -6.26367188 26.20898438 C-6.32130255 19.42777468 -5.70010839 13.59763499 -3.6496582 7.12036133 C-2.90235052 5.05089954 -2.90235052 5.05089954 -3 3 C-3.66 3 -4.32 3 -5 3 C-5 3.99 -5 4.98 -5 6 C-9.455 6.495 -9.455 6.495 -14 7 C-14 7.66 -14 8.32 -14 9 C-15.65 9 -17.3 9 -19 9 C-14.13730917 4.47266715 -6.78328766 0 0 0 Z " fill="#FDCD33" transform="translate(103,48)"/>
<path d="M0 0 C2.62657315 0.97766889 3.94145181 2.31908365 5.859375 4.34765625 C6.47296875 4.98832031 7.0865625 5.62898438 7.71875 6.2890625 C8.17765625 6.78277344 8.6365625 7.27648437 9.109375 7.78515625 C6.109375 8.78515625 6.109375 8.78515625 3.109375 8.78515625 C2.779375 8.12515625 2.449375 7.46515625 2.109375 6.78515625 C1.51125 7.44515625 0.913125 8.10515625 0.296875 8.78515625 C-1.890625 10.78515625 -1.890625 10.78515625 -4.890625 10.78515625 C-4.890625 10.12515625 -4.890625 9.46515625 -4.890625 8.78515625 C-5.839375 8.70265625 -6.788125 8.62015625 -7.765625 8.53515625 C-8.796875 8.28765625 -9.828125 8.04015625 -10.890625 7.78515625 C-12.0859375 5.73828125 -12.0859375 5.73828125 -12.890625 3.78515625 C-12.26414063 3.58019531 -11.63765625 3.37523437 -10.9921875 3.1640625 C-10.17492187 2.89464844 -9.35765625 2.62523437 -8.515625 2.34765625 C-7.70351562 2.08082031 -6.89140625 1.81398437 -6.0546875 1.5390625 C-1.23425846 -0.14025664 -1.23425846 -0.14025664 0 0 Z " fill="#030706" transform="translate(214.890625,58.21484375)"/>
<path d="M0 0 C0 0.33 0 0.66 0 1 C-1.134375 1.19335938 -2.26875 1.38671875 -3.4375 1.5859375 C-4.95836032 1.84880225 -6.47919214 2.11183192 -8 2.375 C-8.74378906 2.50132812 -9.48757812 2.62765625 -10.25390625 2.7578125 C-20.02952345 4.25982195 -20.02952345 4.25982195 -29 8.125 C-29.99 8.74375 -30.98 9.3625 -32 10 C-32 8.02 -32 6.04 -32 4 C-33.2375 4.04125 -34.475 4.0825 -35.75 4.125 C-41.61618748 4.14371192 -47.25262878 3.08918033 -53 2 C-53 1.67 -53 1.34 -53 1 C-51.75387939 1.00523682 -50.50775879 1.01047363 -49.22387695 1.01586914 C-44.59269939 1.03399381 -39.96152495 1.04545933 -35.33032227 1.05493164 C-33.32738721 1.05995478 -31.32445581 1.06677445 -29.3215332 1.07543945 C-26.43960669 1.08759345 -23.55772875 1.09324857 -20.67578125 1.09765625 C-19.78288895 1.10281754 -18.88999664 1.10797882 -17.970047 1.11329651 C-11.87651819 1.1138441 -6.07015204 -0.14116633 0 0 Z " fill="#390404" transform="translate(167,255)"/>
<path d="M0 0 C2.24993359 -0.02707139 4.49996095 -0.04642829 6.75 -0.0625 C8.00296875 -0.07410156 9.2559375 -0.08570312 10.546875 -0.09765625 C13.28536501 -0.02021027 15.41880293 0.17219185 18 1 C18 1.66 18 2.32 18 3 C19.60875 2.7215625 19.60875 2.7215625 21.25 2.4375 C24.46490625 2.0624276 26.0460953 2.0153651 29 3 C29.66 3 30.32 3 31 3 C32.43581474 4.61457079 33.80144783 6.29219075 35.125 8 C35.84945312 8.928125 36.57390625 9.85625 37.3203125 10.8125 C37.87460938 11.534375 38.42890625 12.25625 39 13 C38.34 13.66 37.68 14.32 37 15 C31.125 10.25 31.125 10.25 30 8 C28.08022624 7.49479638 26.15677378 7.00022623 24.21875 6.5703125 C22 6 22 6 18.4375 4.4375 C12.35370061 2.01377308 5.47281411 2.24441616 -1 2 C-0.67 1.34 -0.34 0.68 0 0 Z " fill="#F8D923" transform="translate(182,72)"/>
<path d="M0 0 C2 2 2 2 3.25 5.625 C4.71381825 9.76122491 6.92466284 12.75602744 9.63671875 16.16796875 C11.23348758 18.31376984 12.20339496 20.45086387 13 23 C9.41732727 22.44881958 5.86122444 21.79891831 2.3125 21.0625 C1.56613281 20.90910156 0.81976563 20.75570312 0.05078125 20.59765625 C-2 20 -2 20 -5 18 C-2.36 18.33 0.28 18.66 3 19 C2.690625 18.0925 2.38125 17.185 2.0625 16.25 C0.52310987 10.95493464 0.34179698 5.47774637 0 0 Z " fill="#F1E525" transform="translate(99,218)"/>
<path d="M0 0 C10.05222567 -0.61796469 18.04831355 -0.25632834 27 5 C27.33 5.66 27.66 6.32 28 7 C27.21625 6.731875 26.4325 6.46375 25.625 6.1875 C24.42875 5.795625 23.2325 5.40375 22 5 C21.20335937 4.73574219 20.40671875 4.47148438 19.5859375 4.19921875 C14.92781924 2.71453151 10.95301609 1.60897241 6 2 C7.3089572 5.12197478 7.3089572 5.12197478 10 7 C10.88507329 9.0919745 11.67413834 11.22483459 12.41796875 13.37109375 C12.63947098 14.00862076 12.86097321 14.64614777 13.08918762 15.30299377 C13.55586286 16.65264452 14.01879226 18.00359538 14.47827148 19.35571289 C15.18470835 21.4293057 15.90689222 23.49692502 16.63085938 25.56445312 C17.08168861 26.87467026 17.53158992 28.18520713 17.98046875 29.49609375 C18.39192139 30.69419678 18.80337402 31.8922998 19.22729492 33.12670898 C20 36 20 36 19 38 C15.15721139 32.47013346 13.60624919 26.01197887 11.60546875 19.66015625 C10.12585629 15.06488407 8.65169658 11.07455816 6 7 C6 6.34 6 5.68 6 5 C5.34 5 4.68 5 4 5 C2.61767557 3.37373596 1.28062485 1.7074998 0 0 Z " fill="#DA3A0D" transform="translate(181,74)"/>
<path d="M0 0 C2.77214356 2.68075421 5.21933744 5.43868695 7.5625 8.5 C8.14128906 9.2528125 8.72007812 10.005625 9.31640625 10.78125 C10.88513319 12.848621 12.44592317 14.92159937 14 17 C13.34 17.33 12.68 17.66 12 18 C11.01 17.01 10.02 16.02 9 15 C8.67 15.66 8.34 16.32 8 17 C7.01 17.33 6.02 17.66 5 18 C5 18.66 5 19.32 5 20 C5.99 20 6.98 20 8 20 C8 19.34 8 18.68 8 18 C8.66 18 9.32 18 10 18 C10.33 20.31 10.66 22.62 11 25 C8 25 8 25 5.3125 22.625 C3 20 3 20 3 18 C2.34 18 1.68 18 1 18 C-0.625 15.5 -0.625 15.5 -2 13 C0.66666667 13.66666667 3.33333333 14.33333333 6 15 C4.90213575 9.59212615 4.90213575 9.59212615 1 6 C0.3125 2.875 0.3125 2.875 0 0 Z " fill="#F9D62A" transform="translate(124,183)"/>
<path d="M0 0 C0.81533203 -0.01611328 1.63066406 -0.03222656 2.47070312 -0.04882812 C8.74455639 -0.05389995 13.0044408 1.1259176 17.6875 5.5625 C19.75991668 9.06966669 19.75832567 11.30006893 19.3125 15.3125 C18.6525 16.3025 17.9925 17.2925 17.3125 18.3125 C17.6425 15.6725 17.9725 13.0325 18.3125 10.3125 C17.6525 10.3125 16.9925 10.3125 16.3125 10.3125 C16.3125 9.3225 16.3125 8.3325 16.3125 7.3125 C14.0025 7.3125 11.6925 7.3125 9.3125 7.3125 C9.9725 5.6625 10.6325 4.0125 11.3125 2.3125 C1.4125 2.6425 -8.4875 2.9725 -18.6875 3.3125 C-18.6875 2.9825 -18.6875 2.6525 -18.6875 2.3125 C-12.39249448 0.66347096 -6.49953506 -0.02606069 0 0 Z " fill="#D74549" transform="translate(200.6875,34.6875)"/>
<path d="M0 0 C0.66 0 1.32 0 2 0 C1.79503906 0.70125 1.59007813 1.4025 1.37890625 2.125 C-3.0098618 17.5801832 -2.43396144 31.42967601 0.63623047 47.03808594 C1.18794848 50.01366039 1.59673726 53.00097805 2 56 C1.34 56 0.68 56 0 56 C-1.2917638 52.55529653 -2.15550182 49.33079016 -2.5625 45.6875 C-2.59014592 42.20356334 -2.59014592 42.20356334 -4 41 C-4.24387374 36.85229892 -4.22859912 32.70090179 -4.24023438 28.54663086 C-4.24984897 26.47011851 -4.28081247 24.39463523 -4.3125 22.31835938 C-4.36859425 15.22960936 -4.09580563 9.44959505 -1 3 C-0.67 2.01 -0.34 1.02 0 0 Z " fill="#FECB31" transform="translate(97,162)"/>
<path d="M0 0 C0.66 0 1.32 0 2 0 C2 1.32 2 2.64 2 4 C1.34 4 0.68 4 0 4 C0.02320312 4.90363281 0.04640625 5.80726563 0.0703125 6.73828125 C0.09738281 8.50751953 0.09738281 8.50751953 0.125 10.3125 C0.14820312 11.48425781 0.17140625 12.65601563 0.1953125 13.86328125 C0 17 0 17 -2 20 C-6.68181818 17.65909091 -6.68181818 17.65909091 -7.875 15.1875 C-8.0534614 12.06442543 -6.72380933 10.5537916 -5 8 C-4.505 6.9790625 -4.505 6.9790625 -4 5.9375 C-2.86447443 3.73741921 -1.61146458 1.88004201 0 0 Z " fill="#ED1F24" transform="translate(85,162)"/>
<path d="M0 0 C0.99 0.33 1.98 0.66 3 1 C3 1.66 3 2.32 3 3 C3.66 3 4.32 3 5 3 C5 3.99 5 4.98 5 6 C5.66 6 6.32 6 7 6 C7 7.32 7 8.64 7 10 C7.66 10 8.32 10 9 10 C9.02722517 12.20826378 9.04649729 14.41662638 9.0625 16.625 C9.07410156 17.85476562 9.08570313 19.08453125 9.09765625 20.3515625 C9.00847406 23.68340903 8.62851871 26.73360729 8 30 C7.896875 30.7425 7.79375 31.485 7.6875 32.25 C7 34 7 34 5.0625 34.9375 C2.73547609 35.87279303 2.73547609 35.87279303 1.75 38.625 C1.5025 39.40875 1.255 40.1925 1 41 C0.67 40.34 0.34 39.68 0 39 C0.71480106 37.03284423 1.52189271 35.09874313 2.375 33.1875 C5.91207995 25.23401017 7.73183104 17.18168126 4.6875 8.75 C3.38959751 5.65975599 1.84159894 2.80624601 0 0 Z " fill="#E7E237" transform="translate(172,83)"/>
<path d="M0 0 C2 2 2 2 2 5 C2.391875 5.9075 2.78375 6.815 3.1875 7.75 C4.30698121 12.22792484 3.09263914 13.97569396 1 18 C-0.5 16.8125 -0.5 16.8125 -2 15 C-2.1875 12.3125 -2.1875 12.3125 -2 10 C-2.9590625 9.8453125 -2.9590625 9.8453125 -3.9375 9.6875 C-4.618125 9.460625 -5.29875 9.23375 -6 9 C-6.33 8.01 -6.66 7.02 -7 6 C-2.25 1.125 -2.25 1.125 0 0 Z " fill="#030606" transform="translate(236,86)"/>
<path d="M0 0 C3.12290635 0.48578543 5.99580359 0.9986012 9 2 C9.33 3.98 9.66 5.96 10 8 C11.65 8.33 13.3 8.66 15 9 C15 9.99 15 10.98 15 12 C15.66 12.33 16.32 12.66 17 13 C21.62868573 15.61105349 21.62868573 15.61105349 23.3984375 17.46484375 C25.20542466 19.19690705 26.93262093 20.11550831 29.1875 21.1875 C29.90292969 21.53167969 30.61835937 21.87585938 31.35546875 22.23046875 C32.16951172 22.61138672 32.16951172 22.61138672 33 23 C32.34 23.66 31.68 24.32 31 25 C19.21143618 18.51831542 9.06134471 11.00249887 0 1 C0 0.67 0 0.34 0 0 Z " fill="#E1DC32" transform="translate(61,211)"/>
<path d="M0 0 C3.96233448 3.55243781 6.58429336 6.96984922 7.32421875 12.36328125 C7.59214263 18.45162056 6.68022399 22.12618986 3 27 C0.5 29.0625 0.5 29.0625 -2 30 C-4.3125 29.1875 -4.3125 29.1875 -6 28 C-4.02 27.34 -2.04 26.68 0 26 C-0.33 24.35 -0.66 22.7 -1 21 C0.65 21.33 2.3 21.66 4 22 C3.814375 21.113125 3.62875 20.22625 3.4375 19.3125 C3.01285013 16.09729383 3.26390209 14.10796893 4 11 C4 9.68 4 8.36 4 7 C3.01 7.33 2.02 7.66 1 8 C1.020625 7.236875 1.04125 6.47375 1.0625 5.6875 C1.12942841 2.89814214 1.12942841 2.89814214 0 0 Z " fill="#DE3413" transform="translate(137,213)"/>
<path d="M0 0 C0.66 0.33 1.32 0.66 2 1 C-0.31944788 4.47917182 -2.26369964 5.29429766 -6 7 C-5.00742188 7.04898438 -4.01484375 7.09796875 -2.9921875 7.1484375 C6.10684451 7.63604652 14.99586163 8.55089648 24 10 C24 10.66 24 11.32 24 12 C23.40058594 11.93941406 22.80117187 11.87882812 22.18359375 11.81640625 C11.14608425 10.79586839 0.07290051 10.43768074 -11 10 C-7.55906155 5.72080908 -4.69540998 2.83908511 0 0 Z " fill="#DA480B" transform="translate(158,49)"/>
<path d="M0 0 C2.68471298 3.28131586 4.41664304 6.71908453 6.1875 10.5625 C6.71730469 11.69816406 7.24710938 12.83382812 7.79296875 14.00390625 C9 17 9 17 9 20 C8.4225 19.67 7.845 19.34 7.25 19 C4.80116138 17.72924102 4.80116138 17.72924102 1 18 C0.34 17.01 -0.32 16.02 -1 15 C-0.67 14.05125 -0.34 13.1025 0 12.125 C1.18503367 8.42176977 0.650643 7.39298838 -1 4 C-1 1 -1 1 0 0 Z " fill="#101315" transform="translate(238,87)"/>
<path d="M0 0 C0.99 0.33 1.98 0.66 3 1 C3.33 1.99 3.66 2.98 4 4 C4.763125 3.79375 5.52625 3.5875 6.3125 3.375 C9 3 9 3 12 5 C12.36760731 7.32817964 12.70241581 9.6618385 13 12 C13.66 12.33 14.32 12.66 15 13 C13.02 13.33 11.04 13.66 9 14 C7.49412261 12.04594482 5.99521356 10.08718716 4.5 8.125 C4.07074219 7.56941406 3.64148438 7.01382813 3.19921875 6.44140625 C0 2.2265625 0 2.2265625 0 0 Z " fill="#F6E61A" transform="translate(112,182)"/>
<path d="M0 0 C6.09411765 2.14117647 6.09411765 2.14117647 8 5 C7.6875 7.6875 7.6875 7.6875 7 10 C5.02 10.66 3.04 11.32 1 12 C1 11.01 1 10.02 1 9 C0.34 9 -0.32 9 -1 9 C-1.66 8.34 -2.32 7.68 -3 7 C-2.67028521 3.70285207 -2.3773161 2.3773161 0 0 Z " fill="#040608" transform="translate(73,49)"/>
<path d="M0 0 C0.33 0 0.66 0 1 0 C1.3365691 7.47931334 1.05051294 13.13634589 -2 20 C-2 20.66 -2 21.32 -2 22 C-1.34 22.33 -0.68 22.66 0 23 C-0.33 24.32 -0.66 25.64 -1 27 C-1.99 26.67 -2.98 26.34 -4 26 C-4 25.34 -4 24.68 -4 24 C-4.66 24.33 -5.32 24.66 -6 25 C-7.49756871 25.09499503 -8.99942932 25.12987198 -10.5 25.125 C-11.2940625 25.12757813 -12.088125 25.13015625 -12.90625 25.1328125 C-15 25 -15 25 -17 24 C-16.505 22.515 -16.505 22.515 -16 21 C-15.34 21.66 -14.68 22.32 -14 23 C-10.65483497 23.43632587 -8.76458497 23.52619726 -5.9453125 21.5859375 C-3.09069614 17.79124667 -2.58079262 13.86021804 -1.75 9.25 C-1.57726562 8.36183594 -1.40453125 7.47367188 -1.2265625 6.55859375 C-0.80386234 4.37464293 -0.39557147 2.18899838 0 0 Z " fill="#FCC92D" transform="translate(88,163)"/>
<path d="M0 0 C1.32 0 2.64 0 4 0 C9.21367386 8.47222003 11.85151061 16.00426297 10 26 C8.4878734 29.2126802 6.81097197 31.79772999 4 34 C3.01 34 2.02 34 1 34 C1 34.66 1 35.32 1 36 C-0.98 36 -2.96 36 -5 36 C-2 34 -2 34 1.5 32.25 C5.22213885 30.093835 6.67777952 28.19999445 8 24 C9.14054806 16.47750888 7.4373978 11.11235923 3 5 C2.44957031 4.46246094 1.89914063 3.92492187 1.33203125 3.37109375 C0 2 0 2 0 0 Z " fill="#FDCF2D" transform="translate(135,209)"/>
<path d="M0 0 C0.99 0.33 1.98 0.66 3 1 C2.34 1.66 1.68 2.32 1 3 C0.30251417 4.31747324 -0.36959957 5.64914193 -1 7 C-1.78503906 6.67515625 -2.57007813 6.3503125 -3.37890625 6.015625 C-7.98414335 4.72397274 -12.18121324 4.70781564 -16.9375 4.75 C-17.80568359 4.74226563 -18.67386719 4.73453125 -19.56835938 4.7265625 C-24.76511113 4.74227452 -29.08073717 5.3133956 -34 7 C-34.33 6.34 -34.66 5.68 -35 5 C-33.90820312 3.51391602 -33.90820312 3.51391602 -32 2 C-29.04492188 1.69116211 -29.04492188 1.69116211 -25.46875 1.77734375 C-24.18355469 1.79603516 -22.89835938 1.81472656 -21.57421875 1.83398438 C-20.21611389 1.86720868 -18.85804014 1.90172802 -17.5 1.9375 C-14.84363637 2.00050553 -12.18816349 2.04853767 -9.53125 2.08984375 C-8.35111328 2.11941162 -7.17097656 2.14897949 -5.95507812 2.17944336 C-2.81073009 2.23727697 -2.81073009 2.23727697 0 0 Z " fill="#CBC625" transform="translate(163,70)"/>
<path d="M0 0 C0.66 0.33 1.32 0.66 2 1 C2.46919848 8.20741 2.4627247 13.13470468 -2 19 C-2.99 19.33 -3.98 19.66 -5 20 C-5.33 20.66 -5.66 21.32 -6 22 C-7.93719378 22.05406122 -9.87481921 22.09282025 -11.8125 22.125 C-12.89144531 22.14820312 -13.97039062 22.17140625 -15.08203125 22.1953125 C-18 22 -18 22 -21 20 C-20.67 19.34 -20.34 18.68 -20 18 C-18.515 18.99 -18.515 18.99 -17 20 C-12.27625227 20.30475792 -8.14907729 20.56266539 -4 18 C-2.68931667 15.55711372 -2.68931667 15.55711372 -2 13 C-1.67 12.34 -1.34 11.68 -1 11 C-0.7724985 9.12943209 -0.59037189 7.25314042 -0.4375 5.375 C-0.35371094 4.37210937 -0.26992187 3.36921875 -0.18359375 2.3359375 C-0.09271484 1.17964844 -0.09271484 1.17964844 0 0 Z " fill="#FCC52F" transform="translate(223,96)"/>
<path d="M0 0 C6.2924783 3.77548698 10.26953795 8.10096777 13 15 C13.54659329 18.74392221 13.67381621 22.26809486 13 26 C12.34 26.66 11.68 27.32 11 28 C11 23.38 11 18.76 11 14 C10.34 14 9.68 14 9 14 C8.773125 13.21625 8.54625 12.4325 8.3125 11.625 C7.21875 8.78125 7.21875 8.78125 4.375 7.6875 C3.59125 7.460625 2.8075 7.23375 2 7 C2 6.34 2 5.68 2 5 C1.34 5 0.68 5 0 5 C0 3.35 0 1.7 0 0 Z " fill="#D8340E" transform="translate(210,81)"/>
<path d="M0 0 C0.66 0.33 1.32 0.66 2 1 C0.68 6.94 -0.64 12.88 -2 19 C-2.33 19 -2.66 19 -3 19 C-3 15.04 -3 11.08 -3 7 C-2.34 7 -1.68 7 -1 7 C-1 5.68 -1 4.36 -1 3 C-1.66 3.721875 -2.32 4.44375 -3 5.1875 C-6.24136533 8.45688866 -10.04374711 10.6930039 -14 13 C-12.57646476 9.66863403 -10.8664687 7.72335243 -8.125 5.375 C-7.44695312 4.78460938 -6.76890625 4.19421875 -6.0703125 3.5859375 C-4.08901679 2.06819022 -2.32550496 0.9049036 0 0 Z " fill="#D7340D" transform="translate(88,159)"/>
<path d="M0 0 C0.33 0 0.66 0 1 0 C1.33 6.93 1.66 13.86 2 21 C2.33 20.34 2.66 19.68 3 19 C3.66 19.33 4.32 19.66 5 20 C2.525 24.455 2.525 24.455 0 29 C-0.33 29 -0.66 29 -1 29 C-1.02897435 24.72918086 -1.04678996 20.45838691 -1.0625 16.1875 C-1.07087891 14.97255859 -1.07925781 13.75761719 -1.08789062 12.50585938 C-1.09111328 11.34248047 -1.09433594 10.17910156 -1.09765625 8.98046875 C-1.10289307 7.90692139 -1.10812988 6.83337402 -1.11352539 5.72729492 C-1 3 -1 3 0 0 Z " fill="#D5420A" transform="translate(100,61)"/>
<path d="M0 0 C0.58984375 1.890625 0.58984375 1.890625 1 4 C-0.4375 5.75 -0.4375 5.75 -2 7 C-1.01 8.32 -0.02 9.64 1 11 C0 13 0 13 -1.75 13.6875 C-4 14 -4 14 -6.5 13.4375 C-9.48256598 12.91555095 -10.42537514 13.5654103 -13 15 C-8.70214922 9.96836982 -4.36574458 4.97281557 0 0 Z " fill="#0D1001" transform="translate(219,206)"/>
<path d="M0 0 C0.66 0 1.32 0 2 0 C2.39832031 1.08539063 2.79664062 2.17078125 3.20703125 3.2890625 C3.74200903 4.73444107 4.27717531 6.17974988 4.8125 7.625 C5.07353516 8.33785156 5.33457031 9.05070313 5.60351562 9.78515625 C6.83796215 13.10749382 8.10142714 16.19205938 9.76171875 19.3359375 C11 22 11 22 10 25 C10 24.34 10 23.68 10 23 C9.34 23 8.68 23 8 23 C7.57847656 21.94039062 7.15695313 20.88078125 6.72265625 19.7890625 C6.16931638 18.40102351 5.61592847 17.01300367 5.0625 15.625 C4.78470703 14.92632812 4.50691406 14.22765625 4.22070312 13.5078125 C2.71533804 9.70767754 2.71533804 9.70767754 1 6 C-1.475 7.485 -1.475 7.485 -4 9 C-2.94124926 5.59687262 -1.99097846 2.98646769 0 0 Z " fill="#D73E0E" transform="translate(101,159)"/>
<path d="M0 0 C1.05960937 0.19916016 1.05960937 0.19916016 2.140625 0.40234375 C12.39520683 2.1672655 22.61630713 2.60659987 33 3 C33 3.33 33 3.66 33 4 C28.81370725 4.25645029 24.62624897 4.47527005 20.4375 4.6875 C19.25607422 4.76033203 18.07464844 4.83316406 16.85742188 4.90820312 C10.37693585 5.2167977 5.69341105 5.2521834 0 2 C0 1.34 0 0.68 0 0 Z " fill="#242501" transform="translate(111,243)"/>
<path d="M0 0 C0.33 0 0.66 0 1 0 C1.50604924 2.39469729 2.00499517 4.79051717 2.5 7.1875 C2.64308594 7.86103516 2.78617188 8.53457031 2.93359375 9.22851562 C3.68069842 12.87509793 4.17352282 16.27648957 4 20 C3.34 19.67 2.68 19.34 2 19 C1.61866701 17.0085944 1.28674418 15.00720923 1 13 C0.67 12.34 0.34 11.68 0 11 C-1.32 12.32 -2.64 13.64 -4 15 C-4.66 14.67 -5.32 14.34 -6 14 C-5.65066406 13.40832031 -5.30132812 12.81664062 -4.94140625 12.20703125 C-4.48636719 11.41683594 -4.03132813 10.62664062 -3.5625 9.8125 C-2.88380859 8.64654297 -2.88380859 8.64654297 -2.19140625 7.45703125 C-0.97608501 4.95068023 -0.42373425 2.74209635 0 0 Z " fill="#CB9910" transform="translate(95,117)"/>
<path d="M0 0 C2.79927865 1.39963933 4.63722873 2.33328524 6.15625 5.125 C7.21225974 8.72325541 7.21730076 12.10271957 7.125 15.8125 C7.11597656 16.50537109 7.10695312 17.19824219 7.09765625 17.91210938 C7.07426157 19.60822395 7.03839641 21.30415871 7 23 C6.34 23 5.68 23 5 23 C5 17.72 5 12.44 5 7 C3.68 6.34 2.36 5.68 1 5 C1.33 4.01 1.66 3.02 2 2 C1.34 2 0.68 2 0 2 C0 1.34 0 0.68 0 0 Z " fill="#D73F43" transform="translate(158,9)"/>
<path d="M0 0 C2.77214356 2.68075421 5.21933744 5.43868695 7.5625 8.5 C8.14128906 9.2528125 8.72007812 10.005625 9.31640625 10.78125 C10.88513319 12.848621 12.44592317 14.92159937 14 17 C13.34 17.33 12.68 17.66 12 18 C11.01 17.01 10.02 16.02 9 15 C8.67 15.66 8.34 16.32 8 17 C7.01 16.67 6.02 16.34 5 16 C5.0825 14.906875 5.165 13.81375 5.25 12.6875 C5.12625 10.8621875 5.12625 10.8621875 5 9 C3.70264493 7.95374591 2.36733028 6.95298777 1 6 C0.25 2.8125 0.25 2.8125 0 0 Z " fill="#DEDB30" transform="translate(124,183)"/>
<path d="M0 0 C1.1446875 0.3403125 1.1446875 0.3403125 2.3125 0.6875 C2.02375 1.244375 1.735 1.80125 1.4375 2.375 C0.2711747 4.77244645 -0.7214881 7.20346939 -1.6875 9.6875 C-2.6775 9.3575 -3.6675 9.0275 -4.6875 8.6875 C-6.01591008 3.25309513 -6.01591008 3.25309513 -4.5625 0.75 C-2.6875 -0.3125 -2.6875 -0.3125 0 0 Z " fill="#1F1E20" transform="translate(127.6875,105.3125)"/>
<path d="M0 0 C0.66 0 1.32 0 2 0 C2.33 1.32 2.66 2.64 3 4 C3.66 4 4.32 4 5 4 C5 4.66 5 5.32 5 6 C6.32 6.33 7.64 6.66 9 7 C9.33 10.3 9.66 13.6 10 17 C9.34 17.33 8.68 17.66 8 18 C7.75765625 17.3709375 7.5153125 16.741875 7.265625 16.09375 C5.1014715 10.56683491 2.73215981 5.26916535 0 0 Z " fill="#151603" transform="translate(225,89)"/>
<path d="M0 0 C-1.44739891 3.0478881 -3.12466976 5.82138128 -5 8.625 C-5.7734375 9.78902344 -5.7734375 9.78902344 -6.5625 10.9765625 C-8 13 -8 13 -10 15 C-10 13.35 -10 11.7 -10 10 C-9.34 10 -8.68 10 -8 10 C-8 8.02 -8 6.04 -8 4 C-7.34 4 -6.68 4 -6 4 C-6 3.01 -6 2.02 -6 1 C-4 0 -4 0 0 0 Z " fill="#E3E02D" transform="translate(119,83)"/>
<path d="M0 0 C2.04766176 2.04766176 2.52382983 3.08641916 3.4375 5.75 C4.71219702 9.31394881 6.23824187 12.64427022 8 16 C6.35 16 4.7 16 3 16 C0.96780512 12.59648662 0.63108961 9.6767073 0.375 5.75 C0.30023438 4.67234375 0.22546875 3.5946875 0.1484375 2.484375 C0.09945312 1.66453125 0.05046875 0.8446875 0 0 Z " fill="#FAD628" transform="translate(99,218)"/>
<path d="M0 0 C3.44696406 1.14898802 4.81567858 2.11357527 7 5 C6.79893666 8.2840345 6.0383038 10.8850886 5 14 C3.23537317 10.91190305 3 9.76687864 3 6 C1.68 6.99 0.36 7.98 -1 9 C-0.67 6.03 -0.34 3.06 0 0 Z " fill="#FBD928" transform="translate(100,153)"/>
<path d="M0 0 C1 2 1 2 0.875 3.8125 C-0.38058489 6.95146222 -2.56822132 8.6813273 -5 11 C-7.25857971 13.58123396 -8.82563668 15.52050087 -10 18.75 C-10.33 19.4925 -10.66 20.235 -11 21 C-13.125 21.8125 -13.125 21.8125 -15 22 C-13.70451836 19.26513606 -12.27377581 16.86034328 -10.46875 14.43359375 C-9.98792969 13.78326172 -9.50710937 13.13292969 -9.01171875 12.46289062 C-8.51285156 11.79451172 -8.01398438 11.12613281 -7.5 10.4375 C-6.5098772 9.10326475 -5.52027407 7.76864366 -4.53125 6.43359375 C-4.09361328 5.84634521 -3.65597656 5.25909668 -3.20507812 4.65405273 C-2.09589494 3.13162242 -1.04485279 1.56727919 0 0 Z " fill="#D5D235" transform="translate(171,124)"/>
<path d="M0 0 C0.33 0 0.66 0 1 0 C1.61293736 9.04082602 0.00543725 18.89327913 -6 26 C-6.33 25.01 -6.66 24.02 -7 23 C-6.319375 21.88625 -6.319375 21.88625 -5.625 20.75 C-3.69012556 17.4755971 -3.48488401 14.7405338 -3 11 C-2.34 10.01 -1.68 9.02 -1 8 C-0.54860541 5.9507906 -0.54860541 5.9507906 -0.375 3.8125 C-0.189375 1.9253125 -0.189375 1.9253125 0 0 Z " fill="#212000" transform="translate(178,96)"/>
<path d="M0 0 C1.65 0 3.3 0 5 0 C5 0.66 5 1.32 5 2 C5.9075 1.95875 6.815 1.9175 7.75 1.875 C10.8782046 1.99531556 12.38614006 2.3914708 15 4 C15 4.66 15 5.32 15 6 C16.093125 6.12375 17.18625 6.2475 18.3125 6.375 C22 7 22 7 25 9 C19.978637 8.42135382 15.59774138 7.34706069 10.8125 5.625 C9.62269531 5.20476562 8.43289062 4.78453125 7.20703125 4.3515625 C4.37804756 3.15932333 2.32421423 1.97241009 0 0 Z " fill="#340404" transform="translate(88,247)"/>
<path d="M0 0 C0.99 0.33 1.98 0.66 3 1 C1.04761147 3.00612399 -0.91137822 5.00492433 -2.875 7 C-3.43058594 7.57234375 -3.98617187 8.1446875 -4.55859375 8.734375 C-6.00134404 10.19450782 -7.4974374 11.60149298 -9 13 C-9.66 13 -10.32 13 -11 13 C-10.67 11.68 -10.34 10.36 -10 9 C-9.01 9 -8.02 9 -7 9 C-7 7.35 -7 5.7 -7 4 C-6.01 4 -5.02 4 -4 4 C-3.67 3.34 -3.34 2.68 -3 2 C-2.01 2 -1.02 2 0 2 C0 1.34 0 0.68 0 0 Z " fill="#230304" transform="translate(221,220)"/>
<path d="M0 0 C2.71509341 0.55061335 5.32899112 1.25024312 8 2 C7.67 4.31 7.34 6.62 7 9 C6.67 8.01 6.34 7.02 6 6 C5.34 5.67 4.68 5.34 4 5 C3.40703125 4.66226563 2.8140625 4.32453125 2.203125 3.9765625 C-0.34616777 2.84655684 -2.47672183 2.59394301 -5.25 2.375 C-6.14203125 2.30023438 -7.0340625 2.22546875 -7.953125 2.1484375 C-8.96632813 2.07496094 -8.96632813 2.07496094 -10 2 C-6.23833409 -0.50777727 -4.47445973 -0.2934072 0 0 Z " fill="#D79F0E" transform="translate(91,103)"/>
<path d="M0 0 C0 0.99 0 1.98 0 3 C-0.66 3 -1.32 3 -2 3 C-2 3.99 -2 4.98 -2 6 C-6.455 6.495 -6.455 6.495 -11 7 C-11 7.66 -11 8.32 -11 9 C-12.65 9 -14.3 9 -16 9 C-11.335213 4.65692245 -5.78426332 2.47173424 0 0 Z " fill="#DFDA2F" transform="translate(100,48)"/>
<path d="M0 0 C1.65 0 3.3 0 5 0 C2.6325243 2.60810437 0.10468289 4.24331093 -2.9375 6 C-6.11717445 7.8416214 -9.10070365 9.73975969 -12 12 C-12 10.68 -12 9.36 -12 8 C-11.01 8 -10.02 8 -9 8 C-9 7.34 -9 6.68 -9 6 C-8.34 5.67 -7.68 5.34 -7 5 C-7 4.34 -7 3.68 -7 3 C-4.69 2.34 -2.38 1.68 0 1 C0 0.67 0 0.34 0 0 Z " fill="#DC3310" transform="translate(130,53)"/>
<path d="M0 0 C3.91939465 3.80411834 7.49102731 7.81576108 11 12 C7.09161134 12 5.88405893 10.49432124 3 8 C2.34 8.66 1.68 9.32 1 10 C1 8.68 1 7.36 1 6 C0.69169075 3.99598989 0.36270588 1.99488234 0 0 Z " fill="#171502" transform="translate(56,206)"/>
<path d="M0 0 C0.99 0.33 1.98 0.66 3 1 C2.54965877 2.62723299 2.08944646 4.25173664 1.625 5.875 C1.36976562 6.77992187 1.11453125 7.68484375 0.8515625 8.6171875 C0 11 0 11 -2 13 C-1.67 11.35 -1.34 9.7 -1 8 C-1.66 8 -2.32 8 -3 8 C-3.75 6.25 -3.75 6.25 -4 4 C-2.0625 1.75 -2.0625 1.75 0 0 Z " fill="#100407" transform="translate(105,34)"/>
<path d="M0 0 C4.04191465 4.49101628 6.43674441 9.58984989 9 15 C8.01 15 7.02 15 6 15 C6 14.34 6 13.68 6 13 C4.68 12.67 3.36 12.34 2 12 C2 9.36 2 6.72 2 4 C1.34 4 0.68 4 0 4 C0 2.68 0 1.36 0 0 Z " fill="#DEDA30" transform="translate(223,87)"/>
<path d="M0 0 C0.66 0.66 1.32 1.32 2 2 C1.46428571 5.53571429 1.46428571 5.53571429 0 7 C0 8.155 0 9.31 0 10.5 C0 11.655 0 12.81 0 14 C-0.33 14.33 -0.66 14.66 -1 15 C-1.23653523 17.52596259 -1.42173692 20.03107207 -1.5625 22.5625 C-1.60568359 23.27341797 -1.64886719 23.98433594 -1.69335938 24.71679688 C-1.79971777 26.47761912 -1.90038846 28.2387832 -2 30 C-2.33 30 -2.66 30 -3 30 C-3.23218536 19.71934839 -3.29413835 9.88241505 0 0 Z " fill="#111400" transform="translate(107,103)"/>
<path d="M0 0 C0.33 0 0.66 0 1 0 C1.24915939 1.76813112 1.47366632 3.53974982 1.6875 5.3125 C1.81511719 6.29863281 1.94273437 7.28476563 2.07421875 8.30078125 C2 11 2 11 0.64453125 12.85546875 C-1 14 -1 14 -3 14 C-3.66 15.65 -4.32 17.3 -5 19 C-5.33 18.34 -5.66 17.68 -6 17 C-5.28519894 15.03284423 -4.47810729 13.09874313 -3.625 11.1875 C-1.96105118 7.4459391 -0.64412317 4.05198412 0 0 Z " fill="#DDD732" transform="translate(178,105)"/>
<path d="M0 0 C1.14926266 0.95421808 2.29430541 1.91352045 3.4375 2.875 C4.07558594 3.40867188 4.71367187 3.94234375 5.37109375 4.4921875 C7 6 7 6 8 8 C7.21625 7.814375 6.4325 7.62875 5.625 7.4375 C3.02910225 6.74037734 3.02910225 6.74037734 1 8 C1 7.34 1 6.68 1 6 C-0.32 6.33 -1.64 6.66 -3 7 C-2.01 4.69 -1.02 2.38 0 0 Z " fill="#1B1D1C" transform="translate(216,59)"/>
<path d="M0 0 C2.58148508 0.35606691 3.82045747 0.83328193 5.75 2.625 C7.47331403 5.89929666 7.33159028 8.3525069 7 12 C6.01 13.485 6.01 13.485 5 15 C5.33 12.36 5.66 9.72 6 7 C5.34 7 4.68 7 4 7 C4 6.01 4 5.02 4 4 C1.69 4 -0.62 4 -3 4 C-2.67 3.34 -2.34 2.68 -2 2 C-1.34 2 -0.68 2 0 2 C0 1.34 0 0.68 0 0 Z " fill="#DD383D" transform="translate(213,38)"/>
<path d="M0 0 C1.65 0 3.3 0 5 0 C-1.15034169 7.48291572 -1.15034169 7.48291572 -5 10 C-5.33 7.69 -5.66 5.38 -6 3 C-3.03 3.495 -3.03 3.495 0 4 C0 2.68 0 1.36 0 0 Z " fill="#ECE32E" transform="translate(210,211)"/>
<path d="M0 0 C3.2441189 1.04275251 4.60194664 2.61240491 6.3125 5.4375 C8 9 8 9 7 12 C7 11.34 7 10.68 7 10 C5.68 9.34 4.36 8.68 3 8 C3 7.34 3 6.68 3 6 C2.34 6 1.68 6 1 6 C1 6.66 1 7.32 1 8 C0.34 8 -0.32 8 -1 8 C-1.33 7.01 -1.66 6.02 -2 5 C-1.01 5 -0.02 5 1 5 C0.67 3.35 0.34 1.7 0 0 Z " fill="#E4271B" transform="translate(131,207)"/>
<path d="M0 0 C-0.60328125 0.39832031 -1.2065625 0.79664063 -1.828125 1.20703125 C-2.62734375 1.73683594 -3.4265625 2.26664063 -4.25 2.8125 C-5.03890625 3.33457031 -5.8278125 3.85664063 -6.640625 4.39453125 C-8.81092481 5.87134122 -10.91413768 7.40689873 -13 9 C-13.33 7.02 -13.66 5.04 -14 3 C-12.68 3.33 -11.36 3.66 -10 4 C-10 3.01 -10 2.02 -10 1 C-6.16112237 -0.48320272 -3.93795909 -1.22419163 0 0 Z " fill="#FBDB26" transform="translate(88,160)"/>
<path d="M0 0 C2.01026056 3.58587018 3.02803791 7.30093646 4.125 11.25 C4.47820312 12.51328125 4.83140625 13.7765625 5.1953125 15.078125 C5.46085937 16.04234375 5.72640625 17.0065625 6 18 C5.34 18 4.68 18 4 18 C4 17.01 4 16.02 4 15 C3.34 15 2.68 15 2 15 C-1.00244501 9.99592499 -1.38493338 6.67776737 -1 1 C-0.67 0.67 -0.34 0.34 0 0 Z " fill="#DCD832" transform="translate(105,140)"/>
<path d="M0 0 C-0.33 1.32 -0.66 2.64 -1 4 C-1.93972656 4.18175781 -1.93972656 4.18175781 -2.8984375 4.3671875 C-3.71570313 4.53476562 -4.53296875 4.70234375 -5.375 4.875 C-6.59316406 5.11863281 -6.59316406 5.11863281 -7.8359375 5.3671875 C-10.18673923 5.86658932 -10.18673923 5.86658932 -12 8 C-12.66 6.68 -13.32 5.36 -14 4 C-13.37351563 3.79503906 -12.74703125 3.59007812 -12.1015625 3.37890625 C-11.28429687 3.10949219 -10.46703125 2.84007812 -9.625 2.5625 C-8.81289062 2.29566406 -8.00078125 2.02882812 -7.1640625 1.75390625 C-2.12953368 0 -2.12953368 0 0 0 Z " fill="#290C06" transform="translate(216,58)"/>
<path d="M0 0 C1.65 0.33 3.3 0.66 5 1 C4.34 2.32 3.68 3.64 3 5 C2.34 5 1.68 5 1 5 C1 5.66 1 6.32 1 7 C-0.98 7.99 -2.96 8.98 -5 10 C-5.33 9.01 -5.66 8.02 -6 7 C-5.34 7 -4.68 7 -4 7 C-1.4132178 4.93057424 -0.5590888 3.24271506 0 0 Z " fill="#D72B1E" transform="translate(154,36)"/>
<path d="M0 0 C0 0.66 0 1.32 0 2 C-2.31 2.33 -4.62 2.66 -7 3 C-7 3.99 -7 4.98 -7 6 C-13.435 6.495 -13.435 6.495 -20 7 C-17.37577203 5.25051469 -15.56738891 4.42389003 -12.625 3.5 C-10.06623742 2.68169443 -7.6108693 1.8392721 -5.125 0.8125 C-3 0 -3 0 0 0 Z " fill="#1D1E00" transform="translate(182,237)"/>
<path d="M0 0 C0.33 0 0.66 0 1 0 C1.06058594 1.15757812 1.12117187 2.31515625 1.18359375 3.5078125 C1.26805502 5.04688457 1.35270018 6.58594655 1.4375 8.125 C1.47681641 8.88554687 1.51613281 9.64609375 1.55664062 10.4296875 C1.79509002 14.68509203 2.20230237 18.80370826 3 23 C-0.16115776 21.63016497 -0.9927092 21.0109362 -3 18 C-2.01 18 -1.02 18 0 18 C0 12.06 0 6.12 0 0 Z " fill="#333201" transform="translate(141,181)"/>
<path d="M0 0 C0.33 1.32 0.66 2.64 1 4 C0.01 4 -0.98 4 -2 4 C-2.4640625 5.670625 -2.4640625 5.670625 -2.9375 7.375 C-4 11 -4 11 -5 13 C-6.32 12.67 -7.64 12.34 -9 12 C-7.68858144 10.18671738 -6.37583526 8.37439486 -5.0625 6.5625 C-3.96615234 5.04849609 -3.96615234 5.04849609 -2.84765625 3.50390625 C-1 1 -1 1 0 0 Z " fill="#E7E231" transform="translate(60,77)"/>
<path d="M0 0 C0 0.66 0 1.32 0 2 C-0.66 2 -1.32 2 -2 2 C-2.33 3.32 -2.66 4.64 -3 6 C-3.99 6 -4.98 6 -6 6 C-6 7.65 -6 9.3 -6 11 C-7.65 11.33 -9.3 11.66 -11 12 C-9.56438314 8.81293058 -7.79733671 6.37830895 -5.5 3.75 C-4.8915625 3.04359375 -4.283125 2.3371875 -3.65625 1.609375 C-2 0 -2 0 0 0 Z " fill="#FBD12C" transform="translate(119,65)"/>
<path d="M0 0 C-16.3195999 5.78709216 -16.3195999 5.78709216 -22 4 C-19.69 3.34 -17.38 2.68 -15 2 C-15 1.67 -15 1.34 -15 1 C-13.0641649 0.63684334 -11.12624752 0.28477269 -9.1875 -0.0625 C-8.10855469 -0.25972656 -7.02960938 -0.45695313 -5.91796875 -0.66015625 C-3 -1 -3 -1 0 0 Z " fill="#DED93C" transform="translate(174,240)"/>
<path d="M0 0 C2.89932357 2.39509338 3.50168276 4.31245243 4 8 C3.34 8 2.68 8 2 8 C2 8.66 2 9.32 2 10 C1.01 10 0.02 10 -1 10 C-0.67 8.35 -0.34 6.7 0 5 C-0.99 5.66 -1.98 6.32 -3 7 C-3.66 6.34 -4.32 5.68 -5 5 C-4.360625 4.731875 -3.72125 4.46375 -3.0625 4.1875 C-0.66868314 3.11332248 -0.66868314 3.11332248 0 0 Z " fill="#F89E1F" transform="translate(94,127)"/>
<path d="M0 0 C3.43680414 6.87360828 4.27716268 13.37802619 4 21 C1.90649311 17.5980513 1.82057837 14.94727588 2 11 C1.34 11 0.68 11 0 11 C0 7.37 0 3.74 0 0 Z " fill="#D4D033" transform="translate(236,115)"/>
<path d="M0 0 C0.99 0.33 1.98 0.66 3 1 C0.66153846 6.66153846 0.66153846 6.66153846 -2.6875 8.375 C-3.450625 8.58125 -4.21375 8.7875 -5 9 C-5 9.66 -5 10.32 -5 11 C-5.99 11 -6.98 11 -8 11 C-8 9 -8 9 -5.6875 6.625 C-4.800625 5.75875 -3.91375 4.8925 -3 4 C-1.97186389 2.68824014 -0.95915568 1.3630107 0 0 Z " fill="#270703" transform="translate(163,32)"/>
<path d="M0 0 C2.475 0.495 2.475 0.495 5 1 C5 1.99 5 2.98 5 4 C5.66 4.33 6.32 4.66 7 5 C7.40729228 7.32156597 7.74438677 9.6568787 8 12 C4.74451247 8.97704729 2.31022942 5.79537691 0 2 C0 1.34 0 0.68 0 0 Z " fill="#290505" transform="translate(39,202)"/>
<path d="M0 0 C1.485 0.99 1.485 0.99 3 2 C5.91561145 1.98587284 5.91561145 1.98587284 9.0625 1.5625 C14.80295567 0.90147783 14.80295567 0.90147783 17 2 C16.67 3.32 16.34 4.64 16 6 C15.01 5.67 14.02 5.34 13 5 C13 4.34 13 3.68 13 3 C12.01 3.495 12.01 3.495 11 4 C9.50243129 4.09499503 8.00057068 4.12987198 6.5 4.125 C5.7059375 4.12757813 4.911875 4.13015625 4.09375 4.1328125 C2 4 2 4 0 3 C0 2.01 0 1.02 0 0 Z " fill="#FCD92A" transform="translate(71,184)"/>
<path d="M0 0 C0.66 0.33 1.32 0.66 2 1 C-0.64 4.63 -3.28 8.26 -6 12 C-6.66 11.34 -7.32 10.68 -8 10 C-7.67 9.34 -7.34 8.68 -7 8 C-7.66 7.67 -8.32 7.34 -9 7 C-8.01 7 -7.02 7 -6 7 C-5.67 6.01 -5.34 5.02 -5 4 C-3.37667033 2.61423077 -1.71275535 1.27358732 0 0 Z " fill="#191802" transform="translate(159,138)"/>
<path d="M0 0 C0.99 0.66 1.98 1.32 3 2 C2.01 2.495 2.01 2.495 1 3 C1.33 5.31 1.66 7.62 2 10 C1.38125 10.144375 0.7625 10.28875 0.125 10.4375 C-2.03258322 10.93152225 -2.03258322 10.93152225 -4 12 C-3.45660208 7.43545749 -2.20536179 4.0271824 0 0 Z " fill="#191B1E" transform="translate(34,93)"/>
<path d="M0 0 C4.53287116 3.73295272 8.37382288 7.38486548 12 12 C11.67 12.66 11.34 13.32 11 14 C9.29115995 12.37660195 7.62553283 10.70680947 6 9 C6 8.34 6 7.68 6 7 C5.34 7 4.68 7 4 7 C3.67 7.66 3.34 8.32 3 9 C2.01 6.03 1.02 3.06 0 0 Z " fill="#D2D231" transform="translate(207,68)"/>
<path d="M0 0 C4.29 1.32 8.58 2.64 13 4 C9.79619983 6.13586678 8.98060033 6.23132175 5.3125 6.125 C4.50425781 6.10695312 3.69601563 6.08890625 2.86328125 6.0703125 C1.94095703 6.03550781 1.94095703 6.03550781 1 6 C0.67 4.02 0.34 2.04 0 0 Z " fill="#181801" transform="translate(98,238)"/>
<path d="M0 0 C1.99775873 2.99663809 2.98997415 5.53662626 4.125 8.9375 C4.47820312 9.97777344 4.83140625 11.01804687 5.1953125 12.08984375 C6 15 6 15 6 19 C5.34 19 4.68 19 4 19 C3.34 15.37 2.68 11.74 2 8 C1.34 8 0.68 8 0 8 C0 5.36 0 2.72 0 0 Z " fill="#FCC92D" transform="translate(191,88)"/>
<path d="M0 0 C0.99 0 1.98 0 3 0 C1.62845496 2.95409701 0.01136276 5.44008376 -2 8 C-2.99 7.67 -3.98 7.34 -5 7 C-5.6875 4.9375 -5.6875 4.9375 -6 3 C-4.68 3 -3.36 3 -2 3 C-1.67 2.34 -1.34 1.68 -1 1 C-0.67 0.67 -0.34 0.34 0 0 Z " fill="#03060A" transform="translate(224,71)"/>
<path d="M0 0 C0.99 0.33 1.98 0.66 3 1 C3 1.66 3 2.32 3 3 C3.99 3.33 4.98 3.66 6 4 C3.69 6.97 1.38 9.94 -1 13 C-2.24546405 10.50907189 -1.7767578 9.58919267 -1 7 C-0.01 7 0.98 7 2 7 C1.34 4.69 0.68 2.38 0 0 Z " fill="#DE3113" transform="translate(107,66)"/>
<path d="M0 0 C4.455 0.99 4.455 0.99 9 2 C9 2.33 9 2.66 9 3 C7.58622218 3.36552803 6.16879424 3.71695495 4.75 4.0625 C3.96109375 4.25972656 3.1721875 4.45695312 2.359375 4.66015625 C-0.10394822 5.01497267 -1.65604132 4.76877544 -4 4 C-4 3.34 -4 2.68 -4 2 C-2.68 2 -1.36 2 0 2 C0 1.34 0 0.68 0 0 Z " fill="#0F1002" transform="translate(153,74)"/>
<path d="M0 0 C-1.95585325 1.00484204 -3.91476237 2.00373805 -5.875 3 C-6.96554688 3.556875 -8.05609375 4.11375 -9.1796875 4.6875 C-12 6 -12 6 -14 6 C-12.84279329 2.52837986 -12.0574321 1.86843073 -9 0 C-5.55183317 -1.03445005 -3.41815788 -0.95592551 0 0 Z " fill="#1C1A01" transform="translate(100,49)"/>
<path d="M0 0 C2.5999298 2.51027705 4.99091227 4.9863684 7 8 C7 8.66 7 9.32 7 10 C4.03 9.505 4.03 9.505 1 9 C1.020625 8.2575 1.04125 7.515 1.0625 6.75 C1.00671312 4.29537721 0.6930096 2.33890739 0 0 Z " fill="#181801" transform="translate(49,196)"/>
<path d="M0 0 C-1.31224548 3.93673644 -2.91910327 6.22719294 -6 9 C-6.75 6.75 -6.75 6.75 -7 4 C-4.69139139 0.94933862 -3.89789797 0 0 0 Z " fill="#E1DF2E" transform="translate(225,197)"/>
<path d="M0 0 C0 0.66 0 1.32 0 2 C-2.00887802 3.60979288 -4.12052782 5.01931663 -6.25 6.46484375 C-6.8275 6.97144531 -7.405 7.47804688 -8 8 C-8 8.99 -8 9.98 -8 11 C-9.65 11 -11.3 11 -13 11 C-4.91176471 0 -4.91176471 0 0 0 Z " fill="#D5D332" transform="translate(76,63)"/>
<path d="M0 0 C0 0.66 0 1.32 0 2 C-0.99 2 -1.98 2 -3 2 C-3 2.66 -3 3.32 -3 4 C-4.43294498 4.84114171 -5.87154405 5.67265687 -7.3125 6.5 C-8.51326172 7.19609375 -8.51326172 7.19609375 -9.73828125 7.90625 C-12 9 -12 9 -15 9 C-13.58680023 7.87064804 -12.16928595 6.74669374 -10.75 5.625 C-9.96109375 4.99851562 -9.1721875 4.37203125 -8.359375 3.7265625 C-3.26696833 0 -3.26696833 0 0 0 Z " fill="#FECB31" transform="translate(134,55)"/>
<path d="M0 0 C0.33 0.66 0.66 1.32 1 2 C1.66 2.33 2.32 2.66 3 3 C0.4449161 5.98093122 -2.38281401 7.52359755 -6 9 C-8.375 8.6875 -8.375 8.6875 -10 8 C-4.375 5 -4.375 5 -1 5 C-0.67 3.35 -0.34 1.7 0 0 Z " fill="#CD2B30" transform="translate(213,53)"/>
<path d="M0 0 C2.97 0 5.94 0 9 0 C6.11912454 2.40072955 3.43595166 4.47291037 0 6 C0 4.02 0 2.04 0 0 Z " fill="#D8272A" transform="translate(135,259)"/>
<path d="M0 0 C0.66 0.33 1.32 0.66 2 1 C0.35 5.95 -1.3 10.9 -3 16 C-4.00000429 11.99998285 -3.80688405 9.94476647 -3 6 C-2.34 6 -1.68 6 -1 6 C-0.67 4.02 -0.34 2.04 0 0 Z " fill="#350505" transform="translate(248,172)"/>
<path d="M0 0 C2.91488977 2.6234008 4.88503898 5.71816394 7 9 C6.67 9.66 6.34 10.32 6 11 C5.34 10.67 4.68 10.34 4 10 C4 9.01 4 8.02 4 7 C2.68 7 1.36 7 0 7 C-1.04449911 3.86650268 -0.93423645 3.01031744 0 0 Z " fill="#DEDB2F" transform="translate(117,172)"/>
<path d="M0 0 C-1.40929697 3.47132095 -2.90605083 4.88093274 -6.125 6.75 C-6.84945312 7.17796875 -7.57390625 7.6059375 -8.3203125 8.046875 C-8.87460938 8.36140625 -9.42890625 8.6759375 -10 9 C-7.9020733 4.47543919 -5.37100286 0 0 0 Z " fill="#DC370E" transform="translate(84,163)"/>
<path d="M0 0 C1.17487036 0.75827092 2.33972592 1.53207755 3.5 2.3125 C4.47453125 2.95638672 4.47453125 2.95638672 5.46875 3.61328125 C5.9740625 4.07089844 6.479375 4.52851562 7 5 C7 5.99 7 6.98 7 8 C5.35 7.67 3.7 7.34 2 7 C2 6.34 2 5.68 2 5 C1.34 5 0.68 5 0 5 C0 3.35 0 1.7 0 0 Z " fill="#DF3118" transform="translate(210,81)"/>
<path d="M0 0 C3.39417765 3.12621626 5.6062718 5.56541027 7 10 C6.34 10 5.68 10 5 10 C4.67 9.01 4.34 8.02 4 7 C1.98491642 6.26676204 1.98491642 6.26676204 0 6 C-1.125 2.25 -1.125 2.25 0 0 Z " fill="#1C1804" transform="translate(170,82)"/>
<path d="M0 0 C2.00720923 0.28674418 4.0085944 0.61866701 6 1 C6 1.99 6 2.98 6 4 C4.02 4.66 2.04 5.32 0 6 C-0.38218767 4.34385343 -0.71395102 2.67542976 -1 1 C-0.67 0.67 -0.34 0.34 0 0 Z " fill="#1E0C0D" transform="translate(174,35)"/>
<path d="M0 0 C0.99 0 1.98 0 3 0 C4.25664978 2.90600261 5 4.79604584 5 8 C5.66 8 6.32 8 7 8 C7 9.65 7 11.3 7 13 C3.30250259 8.92000285 1.7410336 5.13604912 0 0 Z " fill="#2E0504" transform="translate(32,189)"/>
<path d="M0 0 C0.33 0.66 0.66 1.32 1 2 C2.98 2 4.96 2 7 2 C7 3.32 7 4.64 7 6 C7.93283296 8.20067421 7.93283296 8.20067421 9 10 C8.54109375 9.60167969 8.0821875 9.20335938 7.609375 8.79296875 C4.47728415 6.08857938 1.36122541 3.42008229 -2 1 C-1.34 0.67 -0.68 0.34 0 0 Z " fill="#DB9911" transform="translate(85,108)"/>
<path d="M0 0 C2.4178712 -0.10826289 4.83087556 -0.18739789 7.25 -0.25 C8.27287109 -0.30027344 8.27287109 -0.30027344 9.31640625 -0.3515625 C12.83282253 -0.41984243 14.64850319 -0.26749128 17.484375 1.890625 C19 4 19 4 19 6 C18.01 6 17.02 6 16 6 C15.81695312 5.35546875 15.63390625 4.7109375 15.4453125 4.046875 C14.09188105 1.62555056 14.09188105 1.62555056 10.7421875 1.390625 C8.82792969 1.32101563 8.82792969 1.32101563 6.875 1.25 C4.95300781 1.16492188 4.95300781 1.16492188 2.9921875 1.078125 C2.00476563 1.05234375 1.01734375 1.0265625 0 1 C0 0.67 0 0.34 0 0 Z " fill="#F3E230" transform="translate(188,64)"/>
<path d="M0 0 C-0.66 1.65 -1.32 3.3 -2 5 C-2.33 4.01 -2.66 3.02 -3 2 C-3.7425 2.309375 -4.485 2.61875 -5.25 2.9375 C-7.50692176 3.8094925 -9.6450153 4.47667007 -12 5 C-12 4.01 -12 3.02 -12 2 C-7.82262526 0.40861915 -4.46839215 -0.21278058 0 0 Z " fill="#241A18" transform="translate(110,33)"/>
<path d="M0 0 C1.60367894 4.00919734 0.31933425 7.04199726 -1 11 C-1.33 11.66 -1.66 12.32 -2 13 C-2.66 13 -3.32 13 -4 13 C-2.93204565 8.49933525 -1.85961414 4.2505466 0 0 Z " fill="#D5D431" transform="translate(147,160)"/>
<path d="M0 0 C0.99 0 1.98 0 3 0 C3.97772468 5.30764827 4.50130596 10.63108121 5 16 C3.15209462 12.68983906 2.25458513 9.42826509 1.375 5.75 C0.98441406 4.13351563 0.98441406 4.13351563 0.5859375 2.484375 C0.39257812 1.66453125 0.19921875 0.8446875 0 0 Z " fill="#1C1A00" transform="translate(234,107)"/>
<path d="M0 0 C2.64465038 3.1254959 3.84414715 6.08788267 5 10 C3.125 9.8125 3.125 9.8125 1 9 C-0.52164099 6.10888212 -1 4.28176588 -1 1 C-0.67 0.67 -0.34 0.34 0 0 Z " fill="#181B1D" transform="translate(238,87)"/>
<path d="M0 0 C2.31 0.33 4.62 0.66 7 1 C7.33 1.99 7.66 2.98 8 4 C3.25 5.125 3.25 5.125 1 4 C0.375 1.9375 0.375 1.9375 0 0 Z " fill="#F9E123" transform="translate(203,74)"/>
<path d="M0 0 C2.375 0.25 2.375 0.25 5 1 C6.3125 3.0625 6.3125 3.0625 7 5 C5.02 5.99 5.02 5.99 3 7 C0 3.375 0 3.375 0 0 Z " fill="#0F1214" transform="translate(220,66)"/>
<path d="M0 0 C1.2065625 0.0309375 1.2065625 0.0309375 2.4375 0.0625 C-2.1875 4.9375 -2.1875 4.9375 -5.5625 6.0625 C-5.8925 5.0725 -6.2225 4.0825 -6.5625 3.0625 C-5.5725 2.4025 -4.5825 1.7425 -3.5625 1.0625 C-2.5625 0.0625 -2.5625 0.0625 0 0 Z " fill="#2A0605" transform="translate(207.5625,232.9375)"/>
<path d="M0 0 C-2.36595933 2.61500768 -4.86049226 4.38999603 -8 6 C-8.66 5.67 -9.32 5.34 -10 5 C-7.00915607 -0.3019506 -6.01775424 -1.42525758 0 0 Z " fill="#E1E037" transform="translate(194,229)"/>
<path d="M0 0 C1.32 0 2.64 0 4 0 C4 1.32 4 2.64 4 4 C5.32 4.33 6.64 4.66 8 5 C7.67 6.32 7.34 7.64 7 9 C5.83037314 7.69013727 4.66437056 6.3770374 3.5 5.0625 C2.8503125 4.33160156 2.200625 3.60070312 1.53125 2.84765625 C0 1 0 1 0 0 Z " fill="#280302" transform="translate(47,214)"/>
<path d="M0 0 C0.99 0 1.98 0 3 0 C3.33 1.98 3.66 3.96 4 6 C1.69 5.34 -0.62 4.68 -3 4 C-2.34 3.67 -1.68 3.34 -1 3 C-0.67 2.01 -0.34 1.02 0 0 Z " fill="#020608" transform="translate(218,210)"/>
<path d="M0 0 C2.04119788 1.61594832 4.04072937 3.2856382 6 5 C6 5.66 6 6.32 6 7 C6.66 7 7.32 7 8 7 C8.66 8.32 9.32 9.64 10 11 C6.64662411 10.00305041 5.27286429 9.41434947 3.3125 6.4375 C2.6628125 5.2309375 2.6628125 5.2309375 2 4 C1.34 3.67 0.68 3.34 0 3 C0 2.01 0 1.02 0 0 Z " fill="#DA3E0C" transform="translate(119,194)"/>
<path d="M0 0 C0.80050781 0.12761719 1.60101563 0.25523438 2.42578125 0.38671875 C3.23402344 0.50660156 4.04226562 0.62648438 4.875 0.75 C5.48988281 0.85699219 6.10476562 0.96398437 6.73828125 1.07421875 C3.1773257 2.94923517 -0.37400735 4.02752722 -4.26171875 5.07421875 C-4.59171875 4.41421875 -4.92171875 3.75421875 -5.26171875 3.07421875 C-3.53640014 0.90221572 -2.83921072 0.09316926 0 0 Z " fill="#DDDD32" transform="translate(133.26171875,71.92578125)"/>
<path d="M0 0 C0.99 0.495 0.99 0.495 2 1 C2.33 1.99 2.66 2.98 3 4 C3.66 4 4.32 4 5 4 C4.67 6.64 4.34 9.28 4 12 C1.57869669 9.57869669 1.47159496 8.19888623 0.875 4.875 C0.70742187 3.96492187 0.53984375 3.05484375 0.3671875 2.1171875 C0.24601562 1.41851562 0.12484375 0.71984375 0 0 Z " fill="#D8330E" transform="translate(97,208)"/>
<path d="M0 0 C0.66 0 1.32 0 2 0 C1.57405412 1.44096586 1.13373367 2.87768712 0.6875 4.3125 C0.44386719 5.11300781 0.20023438 5.91351563 -0.05078125 6.73828125 C-1.04182023 9.09964573 -2.08074943 10.33879993 -4 12 C-3.67 9.69 -3.34 7.38 -3 5 C-2.34 5 -1.68 5 -1 5 C-0.67 3.35 -0.34 1.7 0 0 Z " fill="#330403" transform="translate(242,188)"/>
<path d="M0 0 C4.61487965 1.45733042 4.61487965 1.45733042 6.375 3.9375 C7 6 7 6 6 9 C4.99406757 7.8803014 3.9954151 6.7540588 3 5.625 C2.443125 4.99851563 1.88625 4.37203125 1.3125 3.7265625 C0 2 0 2 0 0 Z " fill="#1A1600" transform="translate(128,187)"/>
<path d="M0 0 C0 0.99 0 1.98 0 3 C-2.64 2.67 -5.28 2.34 -8 2 C-8 1.34 -8 0.68 -8 0 C-5.13822943 -1.43088528 -3.06624227 -0.59991697 0 0 Z " fill="#CFA413" transform="translate(83,106)"/>
<path d="M0 0 C0.66 0.33 1.32 0.66 2 1 C-0.475 5.455 -0.475 5.455 -3 10 C-3.66 9.01 -4.32 8.02 -5 7 C-2.25 1.125 -2.25 1.125 0 0 Z " fill="#1F1F03" transform="translate(51,86)"/>
<path d="M0 0 C0.33 0 0.66 0 1 0 C1 1.65 1 3.3 1 5 C1.66 5 2.32 5 3 5 C3.33 6.65 3.66 8.3 4 10 C3.01 10 2.02 10 1 10 C-0.83691257 6.21812119 -1.15837626 4.05431692 0 0 Z " fill="#F4E820" transform="translate(222,86)"/>
<path d="M0 0 C0.763125 0.20625 1.52625 0.4125 2.3125 0.625 C-0.30264317 2.74538635 -2.88387616 4.75591744 -5.6875 6.625 C-5.875 4.25 -5.875 4.25 -5.6875 1.625 C-2.6875 -0.375 -2.6875 -0.375 0 0 Z " fill="#E1DC2F" transform="translate(125.6875,76.375)"/>
<path d="M0 0 C2.64 0.99 5.28 1.98 8 3 C8 3.66 8 4.32 8 5 C6.35 5.33 4.7 5.66 3 6 C0 2.25 0 2.25 0 0 Z " fill="#151300" transform="translate(89,234)"/>
<path d="M0 0 C0.125 2.875 0.125 2.875 0 6 C-0.66 6.66 -1.32 7.32 -2 8 C-2.33 7.01 -2.66 6.02 -3 5 C-2.67 4.34 -2.34 3.68 -2 3 C-3.98 3.99 -3.98 3.99 -6 5 C-4.87312259 1.61936778 -3.78825335 0 0 0 Z " fill="#0D0F03" transform="translate(152,146)"/>
<path d="M0 0 C0 3.7794561 -1.04679411 5.79116175 -3 9 C-5.1875 9.875 -5.1875 9.875 -7 10 C-5.33248852 6.05860922 -2.77289351 3.2107188 0 0 Z " fill="#DFDD33" transform="translate(163,136)"/>
<path d="M0 0 C0.33 1.32 0.66 2.64 1 4 C0.34 4 -0.32 4 -1 4 C-1.2165625 5.175625 -1.2165625 5.175625 -1.4375 6.375 C-2 9 -2 9 -3 11 C-3.66 11 -4.32 11 -5 11 C-3.77472971 6.94718288 -2.30119506 3.55639236 0 0 Z " fill="#E5E13A" transform="translate(50,91)"/>
<path d="M0 0 C3 0 3 0 6 1 C3.36 2.98 0.72 4.96 -2 7 C-2 2 -2 2 0 0 Z " fill="#FDD32E" transform="translate(149,51)"/>
<path d="M0 0 C2.475 0.495 2.475 0.495 5 1 C5.33 2.32 5.66 3.64 6 5 C4.35 5.33 2.7 5.66 1 6 C0.4465236 3.92446352 0 2.15634036 0 0 Z " fill="#F9E422" transform="translate(193,106)"/>
<path d="M0 0 C1.485 0.99 1.485 0.99 3 2 C3.08798769 4.33167378 3.07905064 6.66800612 3 9 C3.28520405 10.67557379 3.59955696 12.34817245 4 14 C0.18630411 9.52305265 0 5.70525132 0 0 Z " fill="#EDD52F" transform="translate(219,82)"/>
<path d="M0 0 C0.66 0.33 1.32 0.66 2 1 C1.4375 2.875 1.4375 2.875 0 5 C-3.625 6.25 -3.625 6.25 -7 7 C-4.78071806 4.09197539 -3.07030857 2.04687238 0 0 Z " fill="#171603" transform="translate(126,78)"/>
<path d="M0 0 C1.10868317 3.32604951 1.54177532 6.53058454 2 10 C-0.12038635 7.38485683 -2.13091744 4.80362384 -4 2 C-2.68 1.34 -1.36 0.68 0 0 Z " fill="#171900" transform="translate(223,79)"/>
<path d="M0 0 C2.475 0.495 2.475 0.495 5 1 C5.33 1.99 5.66 2.98 6 4 C5.01 4.66 4.02 5.32 3 6 C3 5.34 3 4.68 3 4 C2.01 4 1.02 4 0 4 C0 2.68 0 1.36 0 0 Z " fill="#05070D" transform="translate(215,65)"/>
<path d="M0 0 C1.9375 0.6875 1.9375 0.6875 4 2 C4.86029934 4.79597286 5 7.07171074 5 10 C4.15801693 8.90241493 3.32669329 7.79664683 2.5 6.6875 C2.0359375 6.07261719 1.571875 5.45773438 1.09375 4.82421875 C0 3 0 3 0 0 Z " fill="#DB3E0F" transform="translate(103,225)"/>
<path d="M0 0 C0.99 0.33 1.98 0.66 3 1 C3.25 3.3125 3.25 3.3125 3 6 C1 7.8125 1 7.8125 -1 9 C-0.67 6.03 -0.34 3.06 0 0 Z " fill="#F5DD1E" transform="translate(100,153)"/>
<path d="M0 0 C2.31 0.33 4.62 0.66 7 1 C6.67 2.32 6.34 3.64 6 5 C3.5625 4.1875 3.5625 4.1875 1 3 C0.67 2.01 0.34 1.02 0 0 Z " fill="#F2A224" transform="translate(81,105)"/>
<path d="M0 0 C0.33 0 0.66 0 1 0 C0.75 3.375 0.75 3.375 0 7 C-2.0625 8.4375 -2.0625 8.4375 -4 9 C-2.80100302 5.9168649 -1.52299523 2.93720508 0 0 Z " fill="#191E01" transform="translate(230,188)"/>
<path d="M0 0 C0.99 0.33 1.98 0.66 3 1 C4.1875 4.0625 4.1875 4.0625 5 7 C5.66 7 6.32 7 7 7 C6.67 7.99 6.34 8.98 6 10 C4.99421411 8.71283353 3.99553202 7.42011342 3 6.125 C2.443125 5.40570313 1.88625 4.68640625 1.3125 3.9453125 C0 2 0 2 0 0 Z " fill="#FCCC33" transform="translate(112,182)"/>
<path d="M0 0 C0.66 0 1.32 0 2 0 C3.625 2.5 3.625 2.5 5 5 C4.01 5.66 3.02 6.32 2 7 C1.01 5.02 0.02 3.04 -1 1 C-0.67 0.67 -0.34 0.34 0 0 Z " fill="#100F01" transform="translate(122,176)"/>
<path d="M0 0 C0.99 0.99 1.98 1.98 3 3 C2.67 3.99 2.34 4.98 2 6 C1.34 6 0.68 6 0 6 C-0.33 6.66 -0.66 7.32 -1 8 C-1.33 6.02 -1.66 4.04 -2 2 C-1.34 2 -0.68 2 0 2 C0 1.34 0 0.68 0 0 Z " fill="#1C1F20" transform="translate(27,166)"/>
<path d="M0 0 C0.66 0.33 1.32 0.66 2 1 C-0.475 4.465 -0.475 4.465 -3 8 C-3.33 6.68 -3.66 5.36 -4 4 C-2.0625 1.75 -2.0625 1.75 0 0 Z " fill="#1B1902" transform="translate(165,130)"/>
<path d="M0 0 C0.33 0.66 0.66 1.32 1 2 C3.02463255 2.65213292 3.02463255 2.65213292 5 3 C4.67 4.32 4.34 5.64 4 7 C3.01 6.67 2.02 6.34 1 6 C0.67 4.02 0.34 2.04 0 0 Z " fill="#2D2D2E" transform="translate(122,108)"/>
<path d="M0 0 C1.65 0.99 3.3 1.98 5 3 C4.67 4.65 4.34 6.3 4 8 C2 6.25 2 6.25 0 4 C0 2.68 0 1.36 0 0 Z " fill="#E22617" transform="translate(216,104)"/>
<path d="M0 0 C2.96175123 0.61277612 4.38058783 1.25372522 7 3 C7.6875 5.625 7.6875 5.625 8 8 C7.34 7.67 6.68 7.34 6 7 C6 6.34 6 5.68 6 5 C5.34 5 4.68 5 4 5 C2.61767557 3.37373596 1.28062485 1.7074998 0 0 Z " fill="#D54B0B" transform="translate(181,74)"/>
<path d="M0 0 C-5.17578125 3.22265625 -5.17578125 3.22265625 -7 4 C-7.99 3.67 -8.98 3.34 -10 3 C-9 1 -9 1 -6.6875 -0.1875 C-3.88010429 -1.03624754 -2.698065 -0.99928333 0 0 Z " fill="#DB3B0E" transform="translate(149,47)"/>
<path d="M0 0 C2.97 0.495 2.97 0.495 6 1 C4.8125 2.5 4.8125 2.5 3 4 C0.3125 4.1875 0.3125 4.1875 -2 4 C-1.34 2.68 -0.68 1.36 0 0 Z " fill="#16191A" transform="translate(166,32)"/>
<path d="M0 0 C3.34726719 1.11575573 3.62079748 1.51344622 5.25 4.4375 C5.8275 5.613125 6.405 6.78875 7 8 C6.67 8.66 6.34 9.32 6 10 C4.99421411 8.71283353 3.99553202 7.42011342 3 6.125 C2.443125 5.40570313 1.88625 4.68640625 1.3125 3.9453125 C0 2 0 2 0 0 Z " fill="#D7D53E" transform="translate(49,194)"/>
<path d="M0 0 C0.66 0.33 1.32 0.66 2 1 C1.34 3.31 0.68 5.62 0 8 C-0.33 8 -0.66 8 -1 8 C-1 6.35 -1 4.7 -1 3 C-2.32 3.33 -3.64 3.66 -5 4 C-3.36587557 2.29159719 -2.13093906 1.06546953 0 0 Z " fill="#D15309" transform="translate(88,159)"/>
<path d="M0 0 C-2.97 1.65 -5.94 3.3 -9 5 C-8.1875 2.5625 -8.1875 2.5625 -7 0 C-4 -1 -4 -1 0 0 Z " fill="#FED32D" transform="translate(88,160)"/>
<path d="M0 0 C2 3 2 3 1.625 5.6875 C1.41875 6.450625 1.2125 7.21375 1 8 C0.01 8.33 -0.98 8.66 -2 9 C-1.51421457 5.87709365 -1.0013988 3.00419641 0 0 Z " fill="#FBE225" transform="translate(91,155)"/>
<path d="M0 0 C0.99 0.33 1.98 0.66 3 1 C2.67 3.64 2.34 6.28 2 9 C0.14223235 5.86501708 -0.20140476 3.62528568 0 0 Z " fill="#1F1B02" transform="translate(105,135)"/>
<path d="M0 0 C0.99 0.66 1.98 1.32 3 2 C1.02 4.97 1.02 4.97 -1 8 C-1.93065133 5.39417629 -2.14917407 4.35801776 -1.0625 1.75 C-0.711875 1.1725 -0.36125 0.595 0 0 Z " fill="#161703" transform="translate(55,78)"/>
<path d="M0 0 C1.32 0 2.64 0 4 0 C3.1875 3.4375 3.1875 3.4375 2 7 C1.01 7.33 0.02 7.66 -1 8 C0.875 3.25 0.875 3.25 2 1 C1.34 0.67 0.68 0.34 0 0 Z " fill="#A92A2C" transform="translate(108,32)"/>
<path d="M0 0 C1 4 1 4 0 6 C-2.5625 6.625 -2.5625 6.625 -5 7 C-3.35 4.69 -1.7 2.38 0 0 Z " fill="#DA3D41" transform="translate(116,25)"/>
<path d="M0 0 C2.64 0.33 5.28 0.66 8 1 C8 1.99 8 2.98 8 4 C5.36 3.34 2.72 2.68 0 2 C0 1.34 0 0.68 0 0 Z " fill="#1A1901" transform="translate(111,243)"/>
<path d="M0 0 C2.31 0 4.62 0 7 0 C7 1.65 7 3.3 7 5 C3.34683329 3.75023244 2.21934164 3.32901247 0 0 Z " fill="#300304" transform="translate(67,234)"/>
<path d="M0 0 C0.6875 1.8125 0.6875 1.8125 1 4 C-0.4375 5.75 -0.4375 5.75 -2 7 C-2.99 6.67 -3.98 6.34 -5 6 C-3.35 4.02 -1.7 2.04 0 0 Z " fill="#222402" transform="translate(219,206)"/>
<path d="M0 0 C2.89932357 2.39509338 3.50168276 4.31245243 4 8 C3.01 8.495 3.01 8.495 2 9 C1.01 6.36 0.02 3.72 -1 1 C-0.67 0.67 -0.34 0.34 0 0 Z " fill="#1B1A01" transform="translate(112,157)"/>
<path d="M0 0 C0.66 0.66 1.32 1.32 2 2 C1.66306057 5.36939433 0.11180592 7.42910583 -2 10 C-1.54177532 6.53058454 -1.10868317 3.32604951 0 0 Z " fill="#313203" transform="translate(107,103)"/>
<path d="M0 0 C0.33 1.32 0.66 2.64 1 4 C0.01 4 -0.98 4 -2 4 C-2.66 5.32 -3.32 6.64 -4 8 C-4.66 7.67 -5.32 7.34 -6 7 C-4.02 4.69 -2.04 2.38 0 0 Z " fill="#D8D638" transform="translate(60,77)"/>
<path d="M0 0 C1.32 0.33 2.64 0.66 4 1 C1.69 2.65 -0.62 4.3 -3 6 C-3 4.68 -3 3.36 -3 2 C-2.01 2 -1.02 2 0 2 C0 1.34 0 0.68 0 0 Z " fill="#DB410D" transform="translate(121,59)"/>
</svg>
